<svg width="40" height="39" viewBox="0 0 40 39" fill="none" xmlns="http://www.w3.org/2000/svg">
<path d="M13.9425 0.129934C12.2818 0.110749 10.8057 0.941836 9.95487 2.2648C9.14495 0.922651 7.69492 0.0577633 6.03417 0.0385789C3.42442 0.00843171 1.25569 2.16431 1.21477 4.82941C1.14099 9.63467 9.76516 14.6212 9.76516 14.6212C9.76516 14.6212 18.5387 9.87603 18.6131 5.03039C18.654 2.36529 16.5523 0.160081 13.9425 0.129934Z" fill="white"/>
<path d="M1.22721 16.1288C1.10166 17.0408 1.01306 17.9685 0.998566 18.9122C0.8712 27.2082 5.19912 34.4822 11.7131 38.3865L12.9805 35.752L13.2583 17.6608L11.919 16.2523L1.22721 16.1288ZM39.0882 17.9592C39.1095 16.5664 37.7703 15.1578 36.4096 15.1421L25.5319 15.0165C26.2513 12.2387 26.978 9.46857 26.9994 8.07576C27.0422 5.29015 25.7242 2.49644 25.0583 1.78841C25.0437 1.77302 24.3923 1.088 23.0317 1.07228C20.9945 1.04875 20.9624 3.13415 20.9624 3.13415C20.9619 3.17221 20.2324 6.60454 20.2111 7.99735C20.1897 9.39015 17.383 14.9223 16.0009 16.2994L14.6297 16.9763L14.3305 36.4603L15.6805 37.1687L30.6327 37.3414C33.354 37.3728 34.736 35.9957 34.7574 34.6029C34.7788 33.2101 33.4395 31.8016 32.0789 31.7859C34.8002 31.8173 36.1822 30.4402 36.2036 29.0474C36.225 27.6546 34.8857 26.2461 33.5251 26.2304C36.2464 26.2618 37.6284 24.8847 37.6498 23.4919C37.6711 22.0991 36.3319 20.6906 34.9712 20.6749C37.6847 20.7291 39.0668 19.352 39.0882 17.9592Z" fill="white"/>
</svg>
