<svg width="46" height="34" viewBox="0 0 46 34" fill="none" xmlns="http://www.w3.org/2000/svg">
<path fill-rule="evenodd" clip-rule="evenodd" d="M22.2172 16.6211L22.2852 15.5781V15.647L22.3106 15.1729C22.2767 15.6988 22.1748 20.2502 20.4422 18.5952C15.975 14.3023 14.4463 16.4056 10.7774 14.2506C9.75825 13.6558 8.84952 12.5782 8.88349 11.3197C8.54378 17.1125 15.9835 14.4402 20.3828 19.2158C21.3934 20.3106 21.9285 18.8796 22.0813 17.7676L22.2172 16.6211ZM36.5786 11.9662L36.6465 11.0869C36.0605 15.3453 30.7015 13.5954 24.3744 18.5693C23.9158 18.9313 22.1578 19.7934 22.1578 18.4659C21.937 22.2243 25.1812 17.5176 30.2854 16.0005C32.57 15.3281 35.9076 14.6988 36.5786 11.9662ZM22.6843 18.4831C22.6843 18.4917 22.6758 18.509 22.6758 18.5176C23.3213 19.2244 25.5889 16.1212 30.7355 14.6902C45.2922 10.6473 26.7354 2.27707 23.644 9.25083C23.2024 10.2422 23.7544 15.4229 22.6843 18.4831ZM12.3486 8.24226C8.79007 9.74218 7.25287 13.0696 14.2085 14.8109C19.8902 16.2418 19.9921 17.8969 20.8669 18.2503C22.2597 18.7934 22.3361 10.8456 19.8392 8.96636C17.716 7.37162 14.7435 7.46644 12.3486 8.24226ZM22.7523 0.00132953C40.0861 0.165114 52.027 13.6471 40.8929 23.7845C27.1176 36.3097 -3.45658 27.4481 0.849282 11.9317C3.26124 3.23391 14.234 -0.0762525 22.7523 0.00132953ZM0.849282 21.3536C0.0339713 19.4141 0.0679426 17.3452 0 15.2677C0.263277 18.2159 0.849282 17.5435 0.849282 21.3536ZM2.82811 24.7759C1.35036 22.9225 1.40981 22.4829 1.40981 19.9744C2.76017 22.5087 2.82811 21.2243 2.82811 24.7759ZM4.80694 26.8706C3.09139 25.3276 3.38014 25.3103 3.38014 22.776L4.80694 24.1811V26.8706ZM6.77727 28.4136L5.35897 27.3447V24.6466L6.77727 25.6982V28.4136ZM8.7561 29.6118L7.32931 28.7756V26.0603L8.7561 26.8878V29.6118ZM10.7264 30.5686L9.30813 29.9049V27.1723L10.7264 27.836V30.5686ZM12.7053 31.3358L11.287 30.8014V28.0602L12.7053 28.586V31.3358ZM14.6756 31.9393L13.2573 31.5169V28.767L14.6756 29.1808V31.9393ZM16.6544 32.3961L15.2361 32.0772V29.3273L16.6544 29.6377V32.3961ZM18.6248 32.7237L17.2065 32.4996V29.7411L18.6248 29.9566V32.7237ZM20.6036 32.9392L19.1853 32.7927V30.0256L20.6036 30.1635V32.9392ZM22.5739 33.034L21.1556 32.9737V30.2066L22.5739 30.2583V33.034ZM24.5527 33.0168L23.1344 33.0427V30.2583L24.5527 30.2325V33.0168ZM26.5316 32.8875L25.1048 32.9909V30.2066L26.5316 30.0945V32.8875ZM28.5019 32.6375L27.0836 32.8271V30.0342L28.5019 29.8445V32.6375ZM30.4807 32.2668L29.0624 32.5427V29.7497L30.4807 29.4653V32.2668ZM32.4511 31.7496L31.0328 32.1375V29.336L32.4511 28.948V31.7496ZM34.4299 31.0859L33.0116 31.5772V28.7756L34.4299 28.2757V31.0859ZM36.4002 30.2325L34.9819 30.8704V28.0515L36.4002 27.4136V30.2325ZM38.3791 29.1549L36.9608 29.9566V27.1292L38.3791 26.3189V29.1549ZM40.3494 27.7843L38.9311 28.8101V25.9654L40.3494 24.931V27.7843ZM42.3282 25.9568L40.9099 27.3274V24.4655L42.3282 23.0691V25.9568ZM44.307 23.1811L42.8803 25.3103C42.8803 21.3795 42.8972 22.9139 44.307 20.2244V23.1811ZM45.6149 15.1471C45.6999 17.5607 45.8018 19.7589 44.8591 22.0088C44.8591 17.2676 45.53 18.3107 45.6149 15.1471ZM22.7608 0.846112C38.396 0.992655 49.8783 13.3023 39.2283 22.6984C26.7609 33.6978 -0.925717 26.1292 2.65825 11.949C4.70502 3.85457 14.9134 0.77715 22.7608 0.846112ZM22.7608 1.1823C37.6657 1.32022 49.063 13.1213 38.5744 22.2674C26.5825 32.7323 0.0679425 25.5603 3.38014 11.949C5.29103 4.11318 15.1852 1.11334 22.7608 1.1823Z" fill="#CC9933"/>
</svg>
