<svg width="35" height="38" viewBox="0 0 35 38" fill="none" xmlns="http://www.w3.org/2000/svg">
<path d="M0.486839 15.5666L6.99277 18.5586C7.84843 16.2157 8.73359 14.221 9.64825 12.5747C10.5629 10.9283 11.8169 9.09196 13.4102 7.06567L11.1088 6.54327C10.5187 6.41663 9.94331 6.44829 9.38271 6.63825C8.8221 6.82822 8.33527 7.14482 7.92219 7.58808L0.486839 15.5666ZM9.55974 19.8883L16.464 27.3444C18.5884 26.6162 20.6095 25.6113 22.5273 24.3297C24.4452 23.0468 26.2155 21.5347 27.8383 19.7933C30.4348 17.0072 32.3674 13.8253 33.6361 10.2476C34.9048 6.66991 35.2884 3.32969 34.7868 0.226934C31.8953 -0.3113 28.7825 0.107889 25.4484 1.4845C22.1143 2.86238 19.149 4.9444 16.5525 7.73055C14.9002 9.50356 13.491 11.4032 12.325 13.4295C11.1601 15.4558 10.2384 17.6087 9.55974 19.8883ZM21.775 14.1894C21.0963 13.4612 20.757 12.5664 20.757 11.5052C20.757 10.4451 21.0963 9.55105 21.775 8.82285C22.4536 8.09465 23.2874 7.73055 24.2764 7.73055C25.2643 7.73055 26.0975 8.09465 26.7761 8.82285C27.4547 9.55105 27.7941 10.4451 27.7941 11.5052C27.7941 12.5664 27.4547 13.4612 26.7761 14.1894C26.0975 14.9176 25.2643 15.2817 24.2764 15.2817C23.2874 15.2817 22.4536 14.9176 21.775 14.1894ZM20.5357 37.0326L27.9268 29.1016C28.3399 28.6584 28.635 28.1284 28.812 27.5116C28.989 26.8936 29.0185 26.268 28.9005 25.6347L28.4579 23.1652C26.5696 24.8749 24.8512 26.2205 23.3027 27.202C21.7531 28.1834 19.8866 29.1333 17.7032 30.0514L20.5357 37.0326ZM3.31935 25.9672C4.35204 24.8591 5.60602 24.2968 7.08129 24.2803C8.55656 24.2651 9.81053 24.8116 10.8432 25.9197C11.8759 27.0278 12.3923 28.3734 12.3923 29.9564C12.3923 31.5395 11.8759 32.8851 10.8432 33.9932C10.1056 34.7847 8.87403 35.4654 7.14856 36.0353C5.42191 36.6052 3.03905 37.1118 0 37.555C0.413075 34.294 0.885161 31.7453 1.41626 29.909C1.94735 28.0726 2.58172 26.7587 3.31935 25.9672Z" fill="white"/>
</svg>
