<svg width="33" height="30" viewBox="0 0 33 30" fill="none" xmlns="http://www.w3.org/2000/svg">
<path d="M2.10451 10.5334L7.32924 13.4594C8.22754 11.6479 9.12372 10.1183 10.0178 8.87061C10.9118 7.62293 12.105 6.25014 13.5975 4.75223L11.7079 4.14739C11.2228 3.99817 10.7379 3.9772 10.2532 4.08447C9.76841 4.19175 9.33573 4.40662 8.95514 4.72909L2.10451 10.5334ZM9.37918 14.7336L14.5934 21.2747C16.4311 20.8615 18.2034 20.2179 19.9105 19.3438C21.6178 18.4688 23.219 17.3978 24.7141 16.131C27.1064 14.1041 28.9726 11.706 30.3125 8.93671C31.6525 6.16746 32.2319 3.51742 32.0507 0.986622C29.6675 0.321508 27.0249 0.407009 24.1228 1.24313C21.2207 2.08026 18.5735 3.51229 16.1812 5.53921C14.6588 6.82906 13.3305 8.24017 12.1964 9.77253C11.0632 11.305 10.1241 12.9587 9.37918 14.7336ZM20.0621 11.1443C19.5492 10.5051 19.3337 9.75958 19.4156 8.90777C19.4974 8.05698 19.851 7.36671 20.4762 6.83694C21.1015 6.30718 21.8288 6.08217 22.6581 6.1619C23.4865 6.24154 24.1571 6.60095 24.67 7.24013C25.1828 7.87932 25.3984 8.6243 25.3166 9.47509C25.2347 10.3269 24.8811 11.0177 24.2559 11.5474C23.6306 12.0772 22.9038 12.3023 22.0754 12.2226C21.2461 12.1429 20.575 11.7834 20.0621 11.1443ZM17.2602 29.379L24.0701 23.6092C24.4507 23.2867 24.739 22.8851 24.9351 22.4044C25.1312 21.9226 25.2042 21.4229 25.1541 20.9051L24.9735 18.8873C23.2581 20.1073 21.7133 21.0488 20.3391 21.7117C18.9639 22.3746 17.3255 22.9864 15.4237 23.5474L17.2602 29.379ZM3.67718 19.1096C4.62866 18.3034 5.72358 17.9532 6.96195 18.0589C8.20022 18.1657 9.20958 18.7054 9.99004 19.6781C10.7705 20.6507 11.0997 21.7724 10.9775 23.043C10.8553 24.3135 10.3185 25.3519 9.36705 26.1581C8.68743 26.7339 7.60217 27.181 6.11128 27.4993C4.61941 27.8175 2.58216 28.032 -0.000464147 28.1428C0.597562 25.5586 1.1901 23.551 1.77716 22.12C2.36421 20.6889 2.99755 19.6854 3.67718 19.1096Z" fill="white"/>
</svg>
