<svg width="18" height="18" viewBox="0 0 18 18" fill="none" xmlns="http://www.w3.org/2000/svg">
<path d="M11.3256 0.979007C11.0228 0.669103 10.661 0.422854 10.2616 0.25473C9.86227 0.0866068 9.43332 0 9 0C8.56668 0 8.13772 0.0866068 7.73835 0.25473C7.33898 0.422854 6.97724 0.669103 6.67439 0.979007L5.97457 1.69678L4.97322 1.68441C4.53977 1.67928 4.10967 1.76086 3.70821 1.92437C3.30675 2.08787 2.94204 2.32999 2.63553 2.63649C2.32901 2.94298 2.08687 3.30767 1.92336 3.70911C1.75985 4.11054 1.67826 4.54061 1.68339 4.97403L1.69464 5.97532L0.979068 6.6751C0.669145 6.97793 0.422878 7.33964 0.254744 7.73899C0.0866095 8.13834 0 8.56727 0 9.00056C0 9.43386 0.0866095 9.86278 0.254744 10.2621C0.422878 10.6615 0.669145 11.0232 0.979068 11.326L1.69576 12.0258L1.68339 13.0271C1.67826 13.4605 1.75985 13.8906 1.92336 14.292C2.08687 14.6935 2.32901 15.0581 2.63553 15.3646C2.94204 15.6711 3.30675 15.9133 3.70821 16.0768C4.10967 16.2403 4.53977 16.3218 4.97322 16.3167L5.97457 16.3055L6.67439 17.021C6.97724 17.3309 7.33898 17.5771 7.73835 17.7453C8.13772 17.9134 8.56668 18 9 18C9.43332 18 9.86227 17.9134 10.2616 17.7453C10.661 17.5771 11.0228 17.3309 11.3256 17.021L12.0254 16.3043L13.0268 16.3167C13.4602 16.3218 13.8903 16.2403 14.2918 16.0768C14.6932 15.9133 15.058 15.6711 15.3645 15.3646C15.671 15.0581 15.9131 14.6935 16.0766 14.292C16.2402 13.8906 16.3217 13.4605 16.3166 13.0271L16.3054 12.0258L17.0209 11.326C17.3309 11.0232 17.5771 10.6615 17.7453 10.2621C17.9134 9.86278 18 9.43386 18 9.00056C18 8.56727 17.9134 8.13834 17.7453 7.73899C17.5771 7.33964 17.3309 6.97793 17.0209 6.6751L16.3042 5.97532L16.3166 4.97403C16.3217 4.54061 16.2402 4.11054 16.0766 3.70911C15.9131 3.30767 15.671 2.94298 15.3645 2.63649C15.058 2.32999 14.6932 2.08787 14.2918 1.92437C13.8903 1.76086 13.4602 1.67928 13.0268 1.68441L12.0254 1.69566L11.3256 0.980132V0.979007Z" fill="#1F8FF7"/>
<path fill-rule="evenodd" clip-rule="evenodd" d="M13.0383 6.05432C13.4724 6.46345 13.4926 7.147 13.0834 7.58106L9.06544 11.8437C8.66988 12.2633 8.01439 12.2982 7.57652 11.9229L5.05627 9.7628C4.60335 9.37461 4.5509 8.69278 4.93911 8.23989C5.32733 7.787 6.0092 7.73455 6.46212 8.12275L8.20012 9.61237L11.5115 6.09947C11.9206 5.6654 12.6042 5.64519 13.0383 6.05432Z" fill="white"/>
</svg>
