<svg width="34" height="24" viewBox="0 0 34 24" fill="none" xmlns="http://www.w3.org/2000/svg">
<path fill-rule="evenodd" clip-rule="evenodd" d="M16.3792 12.0725L16.4293 11.3149V11.365L16.4481 11.0206C16.423 11.4025 16.3479 14.7084 15.0706 13.5063C11.7772 10.3882 10.6502 11.916 7.94541 10.3507C7.19408 9.91865 6.52413 9.136 6.54918 8.22187C6.29873 12.4294 11.7835 10.4884 15.0268 13.9571C15.7719 14.7523 16.1663 13.7129 16.279 12.9052L16.3792 12.0725ZM26.9668 8.69146L27.0169 8.05282C26.5849 11.1458 22.6341 9.87482 17.9695 13.4875C17.6314 13.7505 16.3354 14.3766 16.3354 13.4124C16.1726 16.1422 18.5643 12.7236 22.3273 11.6217C24.0116 11.1333 26.4722 10.6762 26.9668 8.69146ZM16.7236 13.4249C16.7236 13.4312 16.7173 13.4437 16.7173 13.4499C17.1932 13.9634 18.8649 11.7093 22.6591 10.67C33.3908 7.7335 19.7101 1.65391 17.4311 6.71919C17.1055 7.43923 17.5125 11.2022 16.7236 13.4249ZM9.10373 5.98664C6.4803 7.07608 5.34703 9.49289 10.4749 10.7576C14.6636 11.797 14.7388 12.9991 15.3837 13.2558C16.4105 13.6503 16.4669 7.87751 14.6261 6.51257C13.0608 5.35426 10.8694 5.42313 9.10373 5.98664ZM16.7737 0.000965682C29.5527 0.119928 38.3559 9.91239 30.1475 17.2755C19.9919 26.373 -2.54829 19.9365 0.626116 8.66641C2.40429 2.3489 10.4937 -0.0553848 16.7737 0.000965682ZM0.626116 15.5099C0.0250447 14.1011 0.0500893 12.5984 0 11.0895C0.194096 13.2308 0.626116 12.7424 0.626116 15.5099ZM2.08497 17.9955C0.995525 16.6494 1.03935 16.3301 1.03935 14.5081C2.03488 16.3489 2.08497 15.4159 2.08497 17.9955ZM3.54382 19.517C2.27906 18.3963 2.49194 18.3837 2.49194 16.543L3.54382 17.5635V19.517ZM4.99641 20.6378L3.95079 19.8614V17.9016L4.99641 18.6655V20.6378ZM6.45526 21.5081L5.40338 20.9007V18.9285L6.45526 19.5295V21.5081ZM7.90785 22.203L6.86223 21.7209V19.7361L7.90785 20.2183V22.203ZM9.3667 22.7603L8.32108 22.3721V20.381L9.3667 20.763V22.7603ZM10.8193 23.1986L9.77367 22.8918V20.8945L10.8193 21.195V23.1986ZM12.2781 23.5304L11.2325 23.2987V21.3014L12.2781 21.5268V23.5304ZM13.7307 23.7683L12.6851 23.6055V21.602L13.7307 21.7585V23.7683ZM15.1896 23.9249L14.144 23.8184V21.8086L15.1896 21.9088V23.9249ZM16.6422 23.9937L15.5966 23.9499V21.9401L16.6422 21.9776V23.9937ZM18.101 23.9812L17.0554 24V21.9776L18.101 21.9589V23.9812ZM19.5599 23.8873L18.508 23.9624V21.9401L19.5599 21.8587V23.8873ZM21.0125 23.7057L19.9668 23.8435V21.8149L21.0125 21.6771V23.7057ZM22.4713 23.4365L21.4257 23.6369V21.6082L22.4713 21.4016V23.4365ZM23.9239 23.0608L22.8783 23.3426V21.3077L23.9239 21.0259V23.0608ZM25.3828 22.5787L24.3371 22.9356V20.9007L25.3828 20.5376V22.5787ZM26.8353 21.9589L25.7897 22.4222V20.3748L26.8353 19.9115V21.9589ZM28.2942 21.1762L27.2486 21.7585V19.7048L28.2942 19.1163V21.1762ZM29.7468 20.1807L28.7012 20.9258V18.8596L29.7468 18.1082V20.1807ZM31.2056 18.8533L30.16 19.8489V17.7701L31.2056 16.7558V18.8533ZM32.6645 16.8372L31.6126 18.3837C31.6126 15.5286 31.6251 16.6431 32.6645 14.6897V16.8372ZM33.6287 11.0018C33.6913 12.755 33.7664 14.3516 33.0715 15.9857C33.0715 12.5421 33.5661 13.2997 33.6287 11.0018ZM16.7799 0.61456C28.3067 0.720999 36.7718 9.66194 28.9203 16.4866C19.7289 24.4758 -0.682466 18.9785 1.95974 8.67894C3.46868 2.7997 10.9946 0.56447 16.7799 0.61456ZM16.7799 0.858745C27.7683 0.958924 36.1707 9.53045 28.4382 16.1735C19.5974 23.7746 0.0500893 18.5653 2.49194 8.67894C3.9007 2.98754 11.195 0.808656 16.7799 0.858745Z" fill="white"/>
</svg>
