<svg width="32" height="32" viewBox="0 0 32 32" fill="none" xmlns="http://www.w3.org/2000/svg">
<path d="M10.9178 0.0939301C9.5228 0.0742879 8.28109 0.758718 7.56345 1.85162C6.88613 0.739075 5.67008 0.0200378 4.27512 0.000395624C2.08306 -0.0304707 0.256553 1.74873 0.21623 3.95418C0.143527 7.93067 7.3765 12.0769 7.3765 12.0769C7.3765 12.0769 14.7567 8.16987 14.83 4.15996C14.8703 1.95451 13.1098 0.124796 10.9178 0.0939301Z" fill="white"/>
<path d="M0.201441 13.3051C0.0939442 14.0596 0.0174435 14.8271 0.00316446 15.6081C-0.122353 22.4732 3.49676 28.5028 8.9596 31.7486L10.0301 29.5713L10.3039 14.6003L9.18205 13.4316L0.201441 13.3051ZM31.9997 14.9058C32.0208 13.7532 30.899 12.5845 29.7561 12.5684L20.6194 12.4398C21.2298 10.1426 21.8464 7.8518 21.8675 6.69921C21.9096 4.39404 20.8088 2.07908 20.2511 1.49163C20.2388 1.47886 19.6932 0.910485 18.5504 0.894393C16.8392 0.870298 16.8076 2.59603 16.8076 2.59603C16.8071 2.62752 16.1867 5.46634 16.1656 6.61893C16.1445 7.77151 13.7746 12.3434 12.6107 13.4799L11.4573 14.0369L11.1625 30.1605L12.2949 30.7498L24.854 30.9266C27.1398 30.9588 28.3037 29.8223 28.3248 28.6697C28.3459 27.5171 27.2241 26.3484 26.0812 26.3324C28.3669 26.3645 29.5309 25.228 29.552 24.0755C29.573 22.9229 28.4512 21.7542 27.3084 21.7381C29.5941 21.7703 30.7581 20.6338 30.7791 19.4812C30.8002 18.3286 29.6784 17.1599 28.5355 17.1439C30.8147 17.1948 31.9786 16.0584 31.9997 14.9058Z" fill="white"/>
</svg>
