<svg width="32" height="34" viewBox="0 0 32 34" fill="none" xmlns="http://www.w3.org/2000/svg">
<path d="M0.44511 14.022L6.39339 16.717C7.1757 14.6066 7.98499 12.8099 8.82126 11.3269C9.65753 9.84391 10.804 8.1898 12.2607 6.36457L10.1566 5.894C9.61706 5.77992 9.09102 5.80844 8.57847 5.97956C8.06592 6.15067 7.62081 6.43587 7.24315 6.83513L0.44511 14.022ZM8.74033 17.9149L15.0528 24.6311C16.9951 23.9752 18.843 23.07 20.5964 21.9155C22.3499 20.7599 23.9685 19.3979 25.4522 17.8293C27.8261 15.3196 29.593 12.4534 30.753 9.23075C31.913 6.00808 32.2637 2.9993 31.8051 0.204416C29.1614 -0.280411 26.3154 0.0971838 23.2671 1.3372C20.2188 2.57836 17.5076 4.45378 15.1337 6.96347C13.623 8.56055 12.3347 10.2717 11.2686 12.0969C10.2035 13.9222 9.36079 15.8615 8.74033 17.9149ZM19.9085 12.7814C19.2881 12.1254 18.9778 11.3195 18.9778 10.3635C18.9778 9.40871 19.2881 8.60333 19.9085 7.94738C20.529 7.29144 21.2913 6.96347 22.1956 6.96347C23.0988 6.96347 23.8606 7.29144 24.481 7.94738C25.1015 8.60333 25.4117 9.40871 25.4117 10.3635C25.4117 11.3195 25.1015 12.1254 24.481 12.7814C23.8606 13.4373 23.0988 13.7653 22.1956 13.7653C21.2913 13.7653 20.529 13.4373 19.9085 12.7814ZM18.7755 33.358L25.5331 26.2139C25.9108 25.8147 26.1805 25.3373 26.3424 24.7817C26.5042 24.225 26.5312 23.6615 26.4233 23.0911L26.0187 20.8666C24.2922 22.4066 22.7211 23.6187 21.3054 24.5028C19.8886 25.3869 18.182 26.2425 16.1858 27.0695L18.7755 33.358ZM3.03484 23.3905C3.97901 22.3924 5.1255 21.8859 6.47432 21.871C7.82314 21.8573 8.96963 22.3496 9.9138 23.3478C10.858 24.3459 11.3301 25.558 11.3301 26.984C11.3301 28.4099 10.858 29.622 9.9138 30.6202C9.23939 31.3331 8.1134 31.9463 6.53583 32.4597C4.95717 32.973 2.77856 33.4293 0 33.8286C0.377669 30.8911 0.80929 28.5953 1.29486 26.9412C1.78044 25.2871 2.36043 24.1035 3.03484 23.3905Z" fill="white"/>
</svg>
