<svg width="55" height="39" viewBox="0 0 55 39" fill="none" xmlns="http://www.w3.org/2000/svg">
<path fill-rule="evenodd" clip-rule="evenodd" d="M19.8407 6.66782C15.1512 2.96086 8.51201 3.11543 3.99689 7.21447C-0.277437 10.9231 -1.488 17.753 2.16372 23.2125C3.35042 25.0352 5.3617 26.7815 7.84603 27.6558C16.5327 30.6246 19.784 31.7959 22.6772 37.0496C23.229 38.0108 25.1701 38.0151 25.3918 36.4301C26.6387 27.0202 27.2829 12.1445 19.8407 6.66782Z" fill="white"/>
<path fill-rule="evenodd" clip-rule="evenodd" d="M51.3548 22.5232C48.4377 25.9221 43.5925 27.475 38.7067 29.5838C34.4538 31.542 31.9778 34.7161 28.8689 38.0407C27.697 39.3456 25.3959 38.4543 25.8584 36.479C28.5371 26.5683 26.8757 16.6914 27.5236 11.7541C29.5249 0.525771 41.1564 -2.57569 48.3387 2.0968C55.4124 6.59529 56.865 16.2155 51.3548 22.5232Z" fill="white"/>
</svg>
