<svg width="132" height="42" viewBox="0 0 132 42" fill="none" xmlns="http://www.w3.org/2000/svg">
<defs>
<linearGradient id="paint0_linear_372_606" x1="8.45625" y1="-22.26" x2="145.792" y2="45.5092" gradientUnits="userSpaceOnUse">
<stop offset="0.09375" stop-color="#D51CFF"/>
<stop offset="0.825376" stop-color="#00FFE1"/>
</linearGradient>
<linearGradient id="paint1_linear_372_606" x1="8.45625" y1="-22.26" x2="145.792" y2="45.5092" gradientUnits="userSpaceOnUse">
<stop offset="0.09375" stop-color="#D51CFF"/>
<stop offset="0.825376" stop-color="#00FFE1"/>
</linearGradient>
<linearGradient id="paint2_linear_372_606" x1="8.45625" y1="-22.26" x2="145.792" y2="45.5092" gradientUnits="userSpaceOnUse">
<stop offset="0.09375" stop-color="#D51CFF"/>
<stop offset="0.825376" stop-color="#00FFE1"/>
</linearGradient>
</defs>
<path d="M127.477 19.1712H132L126.017 35.4911C125.164 37.8196 124.033 39.5149 122.635 40.5668C121.216 41.6187 119.468 42.0885 117.371 41.9863V38.0749C118.512 38.0953 119.407 37.8502 120.075 37.3498C120.743 36.8596 121.278 36.0528 121.668 34.9396L117.063 24.1448C117.875 22.6946 118.841 21.3976 120.003 20.2946L123.848 30.1192L127.477 19.1712ZM129.8 10.756C129.8 12.2981 129.8 13.8402 129.8 15.3823C124.444 15.4742 114.781 17.6189 112.55 35.4604C110.946 35.4604 107.656 35.4604 106.042 35.4604C105.898 30.9566 105.333 25.1763 100.275 23.7567C100.275 22.2146 100.275 20.3559 100.275 18.8138C105.611 19.018 109.188 23.5218 109.353 28.4852C111.141 17.7721 119.592 10.7151 129.8 10.756ZM94.1995 20.6827C95.5668 19.3346 97.664 18.8955 99.1854 18.8138V23.532C97.9004 23.3891 96.749 23.6444 95.7313 24.3184C94.7135 24.9925 94.1995 26.1158 94.1995 27.6784V35.4604H89.9743V19.1712H94.1995V20.6827ZM88.7099 34.7251C87.723 35.5217 86.4276 35.92 84.8034 35.92C83.0146 35.92 81.5342 35.3277 80.3623 34.1328C79.1903 32.9379 78.6044 31.2835 78.6044 29.1694V19.1712H82.8398V28.6588C82.8398 29.7413 83.138 30.5686 83.7239 31.1507C84.3202 31.7226 85.1015 32.0086 86.0884 32.0086C87.1781 32.0086 88.0519 31.6715 88.7099 30.9975V34.7251ZM70.668 35.92C66.6896 35.92 63.3999 34.6026 60.8093 31.9779C58.2084 29.3533 56.913 26.1056 56.913 22.2555C56.913 18.3746 58.2084 15.127 60.8093 12.5126C63.3999 9.89813 66.6896 8.59091 70.668 8.59091C73.0633 8.59091 75.2736 9.15261 77.2988 10.2658C77.6894 10.4803 78.0698 10.7049 78.4296 10.95L75.8595 15.3619C75.5203 15.0862 75.1502 14.8411 74.7493 14.6164C73.5362 13.9526 72.1792 13.6258 70.668 13.6258C68.098 13.6258 66.0316 14.4223 64.4485 16.0257C62.8756 17.6291 62.0943 19.7023 62.0943 22.2555C62.0943 24.7882 62.8756 26.8512 64.4485 28.4545C66.0316 30.0477 68.098 30.8545 70.668 30.8545C72.1792 30.8545 73.5465 30.5175 74.7698 29.8537C75.9418 29.2205 76.8362 28.3626 77.4633 27.2801V29.1694C77.4633 30.7218 77.7511 32.223 78.4913 33.52C78.1212 33.7856 77.7306 34.0204 77.3193 34.2553C75.3044 35.3685 73.0839 35.92 70.668 35.92Z" fill="url(#paint0_linear_372_606)"/>
<path fill-rule="evenodd" clip-rule="evenodd" d="M19.5977 6.58616C14.9657 2.9246 8.40776 3.07727 3.94794 7.12611C-0.274039 10.7893 -1.46978 17.5356 2.13722 22.9282C3.30939 24.7286 5.29603 26.4535 7.74994 27.3171C16.3302 30.2495 19.5417 31.4065 22.3995 36.5958C22.9445 37.5452 24.8618 37.5495 25.0808 35.984C26.3124 26.6892 26.9487 11.9957 19.5977 6.58616Z" fill="url(#paint1_linear_372_606)"/>
<path fill-rule="evenodd" clip-rule="evenodd" d="M50.7258 22.2474C47.8445 25.6047 43.0586 27.1385 38.2327 29.2215C34.0318 31.1557 31.5861 34.2909 28.5154 37.5748C27.3578 38.8637 25.0849 37.9833 25.5417 36.0322C28.1876 26.2429 26.5465 16.487 27.1866 11.6101C29.1633 0.519332 40.6524 -2.54414 47.7467 2.07112C54.7337 6.51451 56.1686 16.0169 50.7258 22.2474Z" fill="url(#paint2_linear_372_606)"/>

</svg>
