<svg width="18" height="20" viewBox="0 0 18 20" fill="none" xmlns="http://www.w3.org/2000/svg">
<path d="M3.62455 1.59998C3.74304 1.26485 3.96255 0.974712 4.25284 0.769561C4.54313 0.56441 4.8899 0.454343 5.24537 0.454529H8.68173C9.03719 0.454343 9.38397 0.56441 9.67425 0.769561C9.96454 0.974712 10.1841 1.26485 10.3025 1.59998H12.1181C12.5738 1.59998 13.0108 1.78101 13.333 2.10323C13.6553 2.42545 13.8363 2.86248 13.8363 3.31817V8.73846C13.4629 8.89882 13.1135 9.13135 12.8088 9.43604L8.04371 14.2H2.95446C2.80256 14.2 2.65688 14.2603 2.54948 14.3677C2.44207 14.4751 2.38173 14.6208 2.38173 14.7727C2.38173 14.9246 2.44207 15.0703 2.54948 15.1777C2.65688 15.2851 2.80256 15.3454 2.95446 15.3454H6.94751C6.64969 15.7383 6.43435 16.1873 6.31407 16.6684L5.88453 18.3843C5.85194 18.5147 5.83123 18.6477 5.82267 18.7818H1.809C1.35331 18.7818 0.916285 18.6008 0.594064 18.2786C0.271842 17.9563 0.0908203 17.5193 0.0908203 17.0636V3.31817C0.0908203 2.86248 0.271842 2.42545 0.594064 2.10323C0.916285 1.78101 1.35331 1.59998 1.809 1.59998H3.62455ZM9.25446 2.17271C9.25446 2.02081 9.19412 1.87514 9.08671 1.76773C8.9793 1.66032 8.83363 1.59998 8.68173 1.59998H5.24537C5.09347 1.59998 4.94779 1.66032 4.84039 1.76773C4.73298 1.87514 4.67264 2.02081 4.67264 2.17271C4.67264 2.32461 4.73298 2.47028 4.84039 2.57769C4.94779 2.6851 5.09347 2.74544 5.24537 2.74544H8.68173C8.83363 2.74544 8.9793 2.6851 9.08671 2.57769C9.19412 2.47028 9.25446 2.32461 9.25446 2.17271ZM10.9726 7.32726H2.95446C2.80256 7.32726 2.65688 7.3876 2.54948 7.495C2.44207 7.60241 2.38173 7.74809 2.38173 7.89998C2.38173 8.05188 2.44207 8.19756 2.54948 8.30496C2.65688 8.41237 2.80256 8.47271 2.95446 8.47271H10.9726C11.1245 8.47271 11.2702 8.41237 11.3776 8.30496C11.485 8.19756 11.5454 8.05188 11.5454 7.89998C11.5454 7.74809 11.485 7.60241 11.3776 7.495C11.2702 7.3876 11.1245 7.32726 10.9726 7.32726ZM6.96355 11.3363C6.96355 11.1845 6.90321 11.0388 6.7958 10.9314C6.68839 10.824 6.54272 10.7636 6.39082 10.7636H2.95446C2.80256 10.7636 2.65688 10.824 2.54948 10.9314C2.44207 11.0388 2.38173 11.1845 2.38173 11.3363C2.38173 11.4882 2.44207 11.6339 2.54948 11.7413C2.65688 11.8487 2.80256 11.9091 2.95446 11.9091H6.39082C6.54272 11.9091 6.68839 11.8487 6.7958 11.7413C6.90321 11.6339 6.96355 11.4882 6.96355 11.3363ZM8.08609 15.7773L13.6186 10.2447C13.8176 10.0459 14.0539 9.88815 14.3138 9.78059C14.5738 9.67303 14.8524 9.61772 15.1337 9.61782C15.4151 9.61793 15.6936 9.67345 15.9535 9.78121C16.2134 9.88897 16.4495 10.0469 16.6484 10.2459C16.8472 10.4449 17.0049 10.6811 17.1125 10.9411C17.2201 11.201 17.2754 11.4796 17.2753 11.761C17.2752 12.0423 17.2196 12.3209 17.1119 12.5808C17.0041 12.8406 16.8462 13.0767 16.6472 13.2756L11.1147 18.807C10.7924 19.1294 10.3885 19.3583 9.94631 19.4691L8.23042 19.8975C8.0598 19.94 7.88109 19.9377 7.71164 19.8907C7.54219 19.8437 7.38777 19.7537 7.26337 19.6295C7.13898 19.5052 7.04885 19.3509 7.00173 19.1814C6.95461 19.012 6.95211 18.8333 6.99448 18.6627L7.42402 16.9468C7.53388 16.5042 7.76285 16.1001 8.08609 15.7784V15.7773Z" fill="#D446F4"/>
</svg>
