<svg width="20" height="20" viewBox="0 0 20 20" fill="none" xmlns="http://www.w3.org/2000/svg">
<path d="M19.291 8.54917L17.1591 7.91281C17.0117 7.39819 16.809 6.90105 16.5546 6.43008L17.5982 4.47644C17.6374 4.4027 17.6517 4.3183 17.6391 4.23576C17.6265 4.15322 17.5876 4.07695 17.5282 4.01826L16.0073 2.49099C15.9486 2.4316 15.8724 2.39271 15.7898 2.3801C15.7073 2.36749 15.6229 2.38183 15.5491 2.42099L13.6082 3.45826C13.1326 3.19141 12.629 2.97799 12.1064 2.8219L11.47 0.715535C11.4431 0.637909 11.3923 0.570826 11.3248 0.52394C11.2573 0.477055 11.1767 0.452786 11.0946 0.454626H8.94368C8.86104 0.455011 8.78069 0.481757 8.7143 0.530973C8.64792 0.580188 8.59897 0.649305 8.57459 0.728263L7.93823 2.82826C7.41133 2.98352 6.90335 3.19696 6.42368 3.46463L4.51459 2.43372C4.44085 2.39456 4.35644 2.38022 4.27391 2.39283C4.19137 2.40544 4.11509 2.44432 4.05641 2.50372L2.51004 4.0119C2.45065 4.07059 2.41177 4.14686 2.39916 4.2294C2.38655 4.31193 2.40088 4.39634 2.44004 4.47008L3.47095 6.37917C3.20372 6.85682 2.99029 7.36264 2.83459 7.88735L0.728226 8.52372C0.649268 8.5481 0.580152 8.59705 0.530936 8.66343C0.481721 8.72981 0.454975 8.81017 0.45459 8.89281V11.0437C0.454975 11.1264 0.481721 11.2067 0.530936 11.2731C0.580152 11.3395 0.649268 11.3884 0.728226 11.4128L2.84732 12.0492C3.00472 12.5651 3.21811 13.0623 3.48368 13.5319L2.44004 15.5301C2.40088 15.6038 2.38655 15.6882 2.39916 15.7708C2.41177 15.8533 2.45065 15.9296 2.51004 15.9883L4.03095 17.5092C4.08964 17.5686 4.16591 17.6075 4.24845 17.6201C4.33099 17.6327 4.41539 17.6183 4.48914 17.5792L6.4555 16.5292C6.92066 16.7802 7.41133 16.9807 7.91914 17.1274L8.5555 19.2719C8.57988 19.3509 8.62883 19.42 8.69521 19.4692C8.7616 19.5184 8.84195 19.5452 8.92459 19.5455H11.0755C11.1581 19.5452 11.2385 19.5184 11.3049 19.4692C11.3713 19.42 11.4202 19.3509 11.4446 19.2719L12.081 17.121C12.5844 16.9736 13.0708 16.7731 13.5319 16.5228L15.511 17.5792C15.5847 17.6183 15.6691 17.6327 15.7516 17.6201C15.8342 17.6075 15.9105 17.5686 15.9691 17.5092L17.49 15.9883C17.5494 15.9296 17.5883 15.8533 17.6009 15.7708C17.6135 15.6882 17.5992 15.6038 17.56 15.5301L16.5037 13.5574C16.7565 13.0945 16.9592 12.606 17.1082 12.1001L19.2528 11.4637C19.3317 11.4393 19.4008 11.3904 19.4501 11.324C19.4993 11.2576 19.526 11.1773 19.5264 11.0946V8.92463C19.5302 8.8455 19.5096 8.76711 19.4675 8.7C19.4254 8.63288 19.3638 8.58025 19.291 8.54917ZM10.0191 13.5001C9.3269 13.5001 8.65021 13.2948 8.07464 12.9102C7.49907 12.5256 7.05046 11.979 6.78556 11.3395C6.52065 10.6999 6.45134 9.9962 6.58639 9.31727C6.72144 8.63833 7.05478 8.01469 7.54426 7.52521C8.03375 7.03572 8.65739 6.70238 9.33632 6.56733C10.0153 6.43228 10.719 6.5016 11.3585 6.7665C11.9981 7.03141 12.5447 7.48001 12.9293 8.05558C13.3139 8.63116 13.5191 9.30785 13.5191 10.0001C13.5191 10.9283 13.1504 11.8186 12.494 12.475C11.8376 13.1313 10.9474 13.5001 10.0191 13.5001Z" fill="#D446F4"/>
</svg>
