<svg width="9" height="9" viewBox="0 0 9 9" fill="none" xmlns="http://www.w3.org/2000/svg">
<path d="M6.11968 4.49841L8.80178 7.19833C9.06607 7.46437 9.06607 7.89457 8.80178 8.15778L8.16637 8.79742C7.90208 9.06346 7.47472 9.06346 7.21324 8.79742L4.50006 6.07188L1.78969 8.80025C1.52541 9.06629 1.09804 9.06629 0.836568 8.80025L0.198338 8.16061C-0.0659511 7.89457 -0.0659511 7.46437 0.198338 7.20116L2.88032 4.50137L0.198217 1.80146C-0.0660722 1.53541 -0.0660722 1.10521 0.198217 0.842L0.833634 0.202363C1.09792 -0.0636808 1.52528 -0.0636808 1.78676 0.202363L4.49994 2.9279L7.21031 0.199533C7.47459 -0.0665109 7.90196 -0.0665109 8.16343 0.199533L8.80166 0.83917C9.06595 1.10521 9.06595 1.53541 8.80166 1.79863L6.11968 4.49841Z" fill="#7B8491"/>
</svg>
