<svg width="64" height="64" viewBox="0 0 64 64" fill="none" xmlns="http://www.w3.org/2000/svg">
<defs>
<linearGradient id="paint0_linear_506_797" x1="46.6133" y1="82" x2="1.19919" y2="65.6153" gradientUnits="userSpaceOnUse">
<stop stop-color="#EEB137"/>
<stop offset="1" stop-color="#D99000"/>
</linearGradient>
</defs>
<path fill-rule="evenodd" clip-rule="evenodd" d="M31.9119 0.879121C40.551 0.879121 48.3085 4.3956 53.9504 10.022C59.5923 15.6484 63.1185 23.3846 63.1185 32C63.1185 40.4396 59.5923 48.3517 53.9504 53.978C48.3085 59.6044 40.551 62.9451 31.9119 62.9451C23.449 62.9451 15.5152 59.6044 9.87329 53.978C4.23141 48.3517 0.881546 40.4396 0.881546 32C0.881546 23.3846 4.23141 15.6484 9.87329 10.022C15.5152 4.3956 23.449 0.879121 31.9119 0.879121ZM54.6557 9.31868C48.8375 3.51648 40.9036 0 31.9119 0C23.0964 0 15.1625 3.51648 9.34435 9.31868C3.52617 15.1209 0 23.033 0 32C0 40.7912 3.52617 48.7033 9.34435 54.5055C15.1625 60.3077 23.0964 64 31.9119 64C40.9036 64 48.8375 60.3077 54.6557 54.5055C60.4738 48.7033 64 40.7912 64 32C64 23.033 60.4738 15.1209 54.6557 9.31868ZM31.5098 31.2381L31.4871 31.5815L31.374 32.5184C31.2468 33.427 30.8016 34.5963 29.9606 33.7017C28.3506 31.9855 26.2513 31.4464 24.4285 30.9784C22.1067 30.3822 20.2336 29.9013 20.392 27.2496C20.3637 28.278 21.1199 29.1585 21.9679 29.6445C23.1825 30.3451 24.1152 30.4949 25.0321 30.6422C26.42 30.8652 27.7717 31.0823 30.0101 33.1946C31.0816 34.1998 31.4036 32.4032 31.5098 31.2381ZM31.5599 30.4876C31.5595 30.4967 31.559 30.5062 31.5585 30.516C31.5506 30.6731 31.5376 30.9341 31.5098 31.2381L31.5436 30.7292V30.7856L31.5599 30.4876ZM31.5648 30.3982C31.5634 30.4199 31.5618 30.4501 31.5599 30.4876L31.5648 30.3982ZM43.4938 27.0594L43.4372 27.7779C42.938 29.7747 40.6642 30.397 38.8295 30.8992C38.6125 30.9586 38.4017 31.0163 38.2006 31.0744C36.4332 31.5903 34.9337 32.5576 33.7985 33.2898C32.2059 34.3172 31.3303 34.882 31.4376 33.0889C31.4376 34.1737 32.9005 33.4693 33.2821 33.1735C35.7028 31.3047 37.9532 30.5975 39.7256 30.0405C41.8079 29.3862 43.2304 28.9392 43.4938 27.0594ZM31.8722 33.1171C31.874 33.1118 31.8757 33.1065 31.8757 33.103C32.4166 31.5843 32.4595 29.4264 32.4921 27.7845C32.5132 26.723 32.53 25.8771 32.6743 25.5591C35.2467 19.8607 50.6879 26.7002 38.5752 30.0037C36.1152 30.6754 34.4456 31.798 33.3684 32.5223C32.5703 33.0589 32.0972 33.377 31.8687 33.1312C31.8687 33.1277 31.8704 33.1224 31.8722 33.1171ZM24.823 30.1023C19.0352 28.6795 20.3143 25.9606 23.2753 24.735C25.2682 24.101 27.7416 24.0235 29.5083 25.3266C31.586 26.8622 31.5224 33.3566 30.3634 32.9128C30.174 32.8377 30.0281 32.6905 29.8326 32.4932C29.2769 31.9325 28.3204 30.9673 24.823 30.1023ZM47.0272 37.435C56.292 29.1514 46.3559 18.1349 31.9323 18.0011C24.8442 17.9377 15.7137 20.6425 13.7067 27.7497C10.1238 40.4286 35.5647 47.6696 47.0272 37.435ZM13.0161 31.0178C13.0585 32.5322 13.1005 34.0326 13.7067 35.4486C13.7067 33.6447 13.543 33.0704 13.3627 32.4379C13.2318 31.9787 13.0921 31.4889 13 30.4757C13.006 30.6565 13.0111 30.8372 13.0161 31.0178ZM14.173 34.5502C14.1712 36.4006 14.1708 36.7887 15.3533 38.245C15.3533 36.157 15.324 36.1146 14.8891 35.4838C14.7196 35.2379 14.4883 34.9025 14.1731 34.3216C14.1731 34.4002 14.173 34.4764 14.173 34.5502ZM15.8036 37.3775C15.778 38.7108 15.7749 38.8747 16.9999 39.9566V37.759L15.8126 36.6108C15.8126 36.9046 15.8078 37.157 15.8036 37.3775ZM17.4592 40.344L18.6394 41.2175V38.9987L17.4592 38.1393V40.344ZM19.0988 41.5133L20.286 42.1966V39.9707L19.0988 39.2945V41.5133ZM20.7453 42.4361L21.9255 42.9784V40.7455L20.7453 40.2032V42.4361ZM22.3919 43.1686L23.5721 43.6053V41.3584L22.3919 40.9287V43.1686ZM24.0315 43.7532L25.2116 44.0984V41.8444L24.0315 41.5063V43.7532ZM25.6781 44.2111L26.8582 44.4717V42.2177L25.6781 41.9641V44.2111ZM27.3176 44.5562L28.4978 44.7394V42.4783L27.3176 42.3022V44.5562ZM28.9642 44.7957L30.1444 44.9155V42.6474L28.9642 42.5347V44.7957ZM30.6037 44.9436L31.7839 44.993V42.7248L30.6037 42.6826V44.9436ZM32.2503 45L33.4305 44.9789V42.7037L32.2503 42.7248V45ZM33.8898 44.9577L35.0771 44.8732V42.591L33.8898 42.6826V44.9577ZM35.5364 44.8239L36.7166 44.6689V42.3867L35.5364 42.5417V44.8239ZM37.183 44.5915L38.3632 44.3661V42.0768L37.183 42.3093V44.5915ZM38.8225 44.2604L40.0027 43.9434V41.6542L38.8225 41.9712V44.2604ZM40.4691 43.8026L41.6493 43.4011V41.1048L40.4691 41.5133V43.8026ZM42.1086 43.225L43.2888 42.7037V40.4004L42.1086 40.9216V43.225ZM43.7552 42.4783L44.9354 41.8232V39.5058L43.7552 40.1679V42.4783ZM45.3948 41.5415L46.5749 40.7033V38.3718L45.3948 39.217V41.5415ZM47.0414 40.33L48.2215 39.21V36.8503L47.0414 37.9914V40.33ZM48.6809 38.6817L49.8681 36.9419V34.5259C49.5349 35.1501 49.2952 35.4958 49.1228 35.7445C48.6881 36.3716 48.6809 36.382 48.6809 38.6817ZM50.9613 30.5128C50.9597 30.4676 50.9581 30.4224 50.9564 30.3771C50.9256 31.504 50.8022 31.9777 50.6727 32.4744C50.5051 33.1172 50.3275 33.7987 50.3275 35.9839C51.0939 34.1878 51.0305 32.4319 50.9613 30.5128ZM45.6421 36.5474C54.504 28.8697 44.9496 18.8111 31.9393 18.6914C25.4095 18.635 16.9151 21.1497 15.2119 27.7638C12.2297 39.3509 35.2679 45.5353 45.6421 36.5474ZM45.098 36.1952C53.8256 28.7218 44.3418 19.0788 31.9393 18.9661C25.6357 18.9097 17.4027 21.361 15.8126 27.7638C13.0565 38.886 35.1195 44.7464 45.098 36.1952Z" fill="url(#paint0_linear_506_797)"/>

</svg>
