<svg width="28" height="28" viewBox="0 0 28 28" fill="none" xmlns="http://www.w3.org/2000/svg">
<path fill-rule="evenodd" clip-rule="evenodd" d="M23.5789 2.21053C23.5789 1.62426 23.3461 1.062 22.9315 0.647448C22.5169 0.232894 21.9547 0 21.3684 0C20.7822 0 20.2199 0.232894 19.8053 0.647448C19.3908 1.062 19.1579 1.62426 19.1579 2.21053V2.94737H2.21053C1.62426 2.94737 1.062 3.18026 0.647448 3.59482C0.232894 4.00937 0 4.57163 0 5.15789C0 5.74416 0.232894 6.30642 0.647448 6.72097C1.062 7.13553 1.62426 7.36842 2.21053 7.36842H19.1579V8.10526C19.1579 8.69153 19.3908 9.25379 19.8053 9.66834C20.2199 10.0829 20.7822 10.3158 21.3684 10.3158C21.9547 10.3158 22.5169 10.0829 22.9315 9.66834C23.3461 9.25379 23.5789 8.69153 23.5789 8.10526V7.36842H25.7895C26.3757 7.36842 26.938 7.13553 27.3526 6.72097C27.7671 6.30642 28 5.74416 28 5.15789C28 4.57163 27.7671 4.00937 27.3526 3.59482C26.938 3.18026 26.3757 2.94737 25.7895 2.94737H23.5789V2.21053ZM2.21053 11.7895C1.62426 11.7895 1.062 12.0224 0.647448 12.4369C0.232894 12.8515 0 13.4137 0 14C0 14.5863 0.232894 15.1485 0.647448 15.5631C1.062 15.9776 1.62426 16.2105 2.21053 16.2105H4.42105V16.9474C4.42105 17.5336 4.65395 18.0959 5.0685 18.5104C5.48305 18.925 6.04531 19.1579 6.63158 19.1579C7.21785 19.1579 7.7801 18.925 8.19466 18.5104C8.60921 18.0959 8.8421 17.5336 8.8421 16.9474V16.2105H25.7895C26.3757 16.2105 26.938 15.9776 27.3526 15.5631C27.7671 15.1485 28 14.5863 28 14C28 13.4137 27.7671 12.8515 27.3526 12.4369C26.938 12.0224 26.3757 11.7895 25.7895 11.7895H8.8421V11.0526C8.8421 10.7623 8.78493 10.4749 8.67384 10.2067C8.56275 9.93851 8.39992 9.69482 8.19466 9.48955C7.98939 9.28429 7.7457 9.12146 7.47751 9.01037C7.20932 8.89928 6.92187 8.8421 6.63158 8.8421C6.34129 8.8421 6.05384 8.89928 5.78565 9.01037C5.51745 9.12146 5.27377 9.28429 5.0685 9.48955C4.86323 9.69482 4.70041 9.93851 4.58932 10.2067C4.47823 10.4749 4.42105 10.7623 4.42105 11.0526V11.7895H2.21053ZM0 22.8421C0 22.2558 0.232894 21.6936 0.647448 21.279C1.062 20.8645 1.62426 20.6316 2.21053 20.6316H19.1579V19.8947C19.1579 19.3085 19.3908 18.7462 19.8053 18.3317C20.2199 17.9171 20.7822 17.6842 21.3684 17.6842C21.9547 17.6842 22.5169 17.9171 22.9315 18.3317C23.3461 18.7462 23.5789 19.3085 23.5789 19.8947V20.6316H25.7895C26.3757 20.6316 26.938 20.8645 27.3526 21.279C27.7671 21.6936 28 22.2558 28 22.8421C28 23.4284 27.7671 23.9906 27.3526 24.4052C26.938 24.8197 26.3757 25.0526 25.7895 25.0526H23.5789V25.7895C23.5789 26.3757 23.3461 26.938 22.9315 27.3526C22.5169 27.7671 21.9547 28 21.3684 28C20.7822 28 20.2199 27.7671 19.8053 27.3526C19.3908 26.938 19.1579 26.3757 19.1579 25.7895V25.0526H2.21053C1.62426 25.0526 1.062 24.8197 0.647448 24.4052C0.232894 23.9906 0 23.4284 0 22.8421Z" fill="#C5C5C7"/>
</svg>
