<svg width="20" height="20" viewBox="0 0 20 20" fill="none" xmlns="http://www.w3.org/2000/svg">
<path d="M14 0C12.95 0 11.91 0.27 11 0.81C10.64 1 10.3 1.26 10 1.54C9.7 1.26 9.36 1 9 0.81C8.09 0.27 7.05 0 6 0C4.4087 0 2.88258 0.632141 1.75736 1.75736C0.632141 2.88258 0 4.4087 0 6C0 7.5913 0.632141 9.11742 1.75736 10.2426C2.88258 11.3679 4.4087 12 6 12V10C4.93913 10 3.92172 9.57857 3.17157 8.82843C2.42143 8.07828 2 7.06087 2 6C2 4.93913 2.42143 3.92172 3.17157 3.17157C3.92172 2.42143 4.93913 2 6 2C6.56764 2.00256 7.12833 2.12505 7.64533 2.35942C8.16233 2.59379 8.62397 2.93477 9 3.36V20H11V3.36C11.08 3.27 11.16 3.18 11.25 3.1C11.6313 2.73777 12.0802 2.45428 12.5711 2.26574C13.0621 2.07721 13.5854 1.98734 14.1111 2.00127C14.6368 2.0152 15.1546 2.13267 15.6349 2.34694C16.1152 2.56121 16.5485 2.86808 16.91 3.25C17.6392 4.01918 18.0331 5.04652 18.005 6.10606C17.9768 7.16561 17.529 8.17059 16.76 8.9C16 9.61 15.03 10 14 10V12C15.5913 12 17.1174 11.3679 18.2426 10.2426C19.3679 9.11742 20 7.5913 20 6C20 4.4087 19.3679 2.88258 18.2426 1.75736C17.1174 0.632141 15.5913 0 14 0Z" fill="white"/>
</svg>
