<svg width="18" height="19" viewBox="0 0 18 19" fill="none" xmlns="http://www.w3.org/2000/svg">
<path d="M15.5 16.13C17 14.77 17 12.18 17 11C17 9.93913 16.5786 8.92172 15.8284 8.17157C15.0783 7.42143 14.0609 7 13 7C12.3 7 11.6 7.2 11 7.56V3C11 2.20435 10.6839 1.44129 10.1213 0.87868C9.55871 0.316071 8.79565 0 8 0C7.25 0 6.55 0.29 6 0.78C5.45028 0.287428 4.73812 0.0150414 4 0.0150414C3.26188 0.0150414 2.54972 0.287428 2 0.78C1.45 0.28 0.74 0 0 0V2C0.265216 2 0.51957 2.10536 0.707107 2.29289C0.894643 2.48043 1 2.73478 1 3V13H3V3C3 2.73478 3.10536 2.48043 3.29289 2.29289C3.48043 2.10536 3.73478 2 4 2C4.26522 2 4.51957 2.10536 4.70711 2.29289C4.89464 2.48043 5 2.73478 5 3V13H7V3C7 2.73478 7.10536 2.48043 7.29289 2.29289C7.48043 2.10536 7.73478 2 8 2C8.26522 2 8.51957 2.10536 8.70711 2.29289C8.89464 2.48043 9 2.73478 9 3V11C9 12.18 9 14.77 10.5 16.13C9.72 16.54 8.88 16.84 8 17V19C9.29 19 11.84 17.74 13 17.13C14.16 17.74 16.71 19 18 19V17C17.12 16.84 16.28 16.54 15.5 16.13ZM13 9C13.5304 9 14.0391 9.21071 14.4142 9.58579C14.7893 9.96086 15 10.4696 15 11C15 13.92 14.46 15 13 15C11.54 15 11 13.92 11 11C11 10.4696 11.2107 9.96086 11.5858 9.58579C11.9609 9.21071 12.4696 9 13 9Z" fill="white"/>
</svg>
