<svg width="16" height="18" viewBox="0 0 16 18" fill="none" xmlns="http://www.w3.org/2000/svg">
<path d="M16 13V15H9V12.91C12 12.36 13.96 9.5 13.41 6.5C12.86 3.5 10 1.54 7 2.09C4 2.65 2.04 5.5 2.59 8.5C3 10.74 4.76 12.5 7 12.91V15H0V13H2.92C2.15579 12.3024 1.54576 11.4528 1.12903 10.5056C0.712291 9.5585 0.498038 8.53475 0.5 7.5C0.5 5.51088 1.29018 3.60322 2.6967 2.1967C4.10322 0.790176 6.01088 0 8 0C9.98912 0 11.8968 0.790176 13.3033 2.1967C14.7098 3.60322 15.5 5.51088 15.5 7.5C15.5 9.59 14.63 11.59 13.08 13H16ZM16 16H0V18H16V16Z" fill="white"/>
</svg>
