<svg width="15" height="20" viewBox="0 0 15 20" fill="none" xmlns="http://www.w3.org/2000/svg">
<path d="M10.5922 6C11.6308 5.38 12.4909 4.50133 13.0885 3.44974C13.6862 2.39814 14.001 1.20956 14.0022 0H12.0022C12.0022 1.32608 11.4754 2.59785 10.5377 3.53553C9.60004 4.47322 8.32827 5 7.00219 5C5.67611 5 4.40434 4.47322 3.46666 3.53553C2.52897 2.59785 2.00219 1.32608 2.00219 0H0.00219032C0.00219032 2.46 1.30219 4.74 3.41219 6C0.0921903 8 -0.99781 12.28 1.00219 15.6C2.97219 18.92 7.27219 20 10.5922 18C13.9122 16.04 15.0022 11.74 13.0022 8.42C12.4145 7.42402 11.5857 6.59183 10.5922 6ZM7.00219 17C5.67611 17 4.40434 16.4732 3.46666 15.5355C2.52897 14.5979 2.00219 13.3261 2.00219 12C2.00219 10.6739 2.52897 9.40215 3.46666 8.46447C4.40434 7.52678 5.67611 7 7.00219 7C8.32827 7 9.60004 7.52678 10.5377 8.46447C11.4754 9.40215 12.0022 10.6739 12.0022 12C12.0022 13.3261 11.4754 14.5979 10.5377 15.5355C9.60004 16.4732 8.32827 17 7.00219 17Z" fill="white"/>
</svg>
