<svg width="19" height="20" viewBox="0 0 19 20" fill="none" xmlns="http://www.w3.org/2000/svg">
<path d="M14.71 12.29L13.29 13.71L14.59 15H13C12.4696 15 11.9609 14.7893 11.5858 14.4142C11.2107 14.0391 11 13.5304 11 13V3C11 2.20435 10.6839 1.44129 10.1213 0.87868C9.55871 0.316071 8.79565 0 8 0C7.25 0 6.55 0.29 6 0.78C5.45028 0.287428 4.73812 0.0150414 4 0.0150414C3.26188 0.0150414 2.54972 0.287428 2 0.78C1.45 0.28 0.74 0 0 0V2C0.265216 2 0.51957 2.10536 0.707107 2.29289C0.894643 2.48043 1 2.73478 1 3V13H3V3C3 2.73478 3.10536 2.48043 3.29289 2.29289C3.48043 2.10536 3.73478 2 4 2C4.26522 2 4.51957 2.10536 4.70711 2.29289C4.89464 2.48043 5 2.73478 5 3V13H7V3C7 2.73478 7.10536 2.48043 7.29289 2.29289C7.48043 2.10536 7.73478 2 8 2C8.26522 2 8.51957 2.10536 8.70711 2.29289C8.89464 2.48043 9 2.73478 9 3V13C9 14.0609 9.42143 15.0783 10.1716 15.8284C10.9217 16.5786 11.9391 17 13 17H14.59L13.29 18.29L14.71 19.71L18.41 16L14.71 12.29Z" fill="white"/>
</svg>
