<svg width="20" height="20" viewBox="0 0 20 20" fill="none" xmlns="http://www.w3.org/2000/svg">
<path d="M15.94 3.16C17.29 2.83 18.6 2.4 19.88 1.86L19.12 0C16.2148 1.22299 13.0952 1.85549 9.94302 1.86064C6.79087 1.86579 3.66921 1.24349 0.76 0.03L0 1.86C1.28 2.4 2.59 2.83 3.94 3.16V16.56C2.59 16.89 1.28 17.32 0 17.86L0.76 19.72C3.66977 18.5119 6.78939 17.89 9.94 17.89C13.0906 17.89 16.2102 18.5119 19.12 19.72L19.88 17.86C18.6 17.32 17.29 16.89 15.94 16.56V3.16ZM5.94 16.16V3.55C7.26 3.75 8.6 3.86 9.94 3.86C11.28 3.86 12.62 3.75 13.94 3.55V16.17C11.2891 15.76 8.59091 15.76 5.94 16.17V16.16Z" fill="white"/>
</svg>
