<svg width="20" height="16" viewBox="0 0 20 16" fill="none" xmlns="http://www.w3.org/2000/svg">
<path d="M10 0.00101257C4.5 0.00101257 0 3.58101 0 8.00101C0 10.121 1.65 11.871 3.76 12.001H4C5.06087 12.001 6.07828 11.5796 6.82843 10.8294C7.57857 10.0793 8 9.06188 8 8.00101C8 6.94015 7.57857 5.92273 6.82843 5.17259C6.07828 4.42244 5.06087 4.00101 4 4.00101H3.76C5.44387 2.41221 7.68546 1.55006 10 1.60101C11.77 1.58101 13.5 2.07101 15 3.00101L16.25 1.75101C14.3781 0.57927 12.2082 -0.0282976 10 0.00101257ZM4 6.00101C4.53043 6.00101 5.03914 6.21173 5.41421 6.5868C5.78929 6.96187 6 7.47058 6 8.00101C6 9.11101 5.08 10.001 4 10.001C3.50247 10.0035 3.02187 9.82046 2.65205 9.48763C2.28223 9.15479 2.04975 8.69606 2 8.20101V7.80101C2.04975 7.30597 2.28223 6.84724 2.65205 6.5144C3.02187 6.18156 3.50247 5.99852 4 6.00101ZM16.24 4.00101H16C14.9391 4.00101 13.9217 4.42244 13.1716 5.17259C12.4214 5.92273 12 6.94015 12 8.00101C12 9.06188 12.4214 10.0793 13.1716 10.8294C13.9217 11.5796 14.9391 12.001 16 12.001H16.24C14.5561 13.5898 12.3145 14.452 10 14.401C8.23 14.421 6.5 13.931 5 13.001L3.76 14.241C5.63 15.411 7.79 16.001 10 16.001C15.5 16.001 20 12.421 20 8.00101C20 5.88101 18.35 4.13101 16.24 4.00101ZM16 10.001C15.4696 10.001 14.9609 9.7903 14.5858 9.41523C14.2107 9.04015 14 8.53145 14 8.00101C14 6.89101 14.92 6.00101 16 6.00101C16.4975 5.99852 16.9781 6.18156 17.348 6.5144C17.7178 6.84724 17.9503 7.30597 18 7.80101V8.20101C17.9503 8.69606 17.7178 9.15479 17.348 9.48763C16.9781 9.82046 16.4975 10.0035 16 10.001Z" fill="white"/>
</svg>
