<svg width="14" height="18" viewBox="0 0 14 18" fill="none" xmlns="http://www.w3.org/2000/svg">
<path d="M9 10C8.3 10 7.61 10.19 7 10.55V3C7 2.20435 6.68393 1.44129 6.12132 0.87868C5.55871 0.316071 4.79565 0 4 0C3.25 0 2.55 0.29 2 0.78C1.45 0.28 0.74 0 0 0V2C0.265216 2 0.51957 2.10536 0.707107 2.29289C0.894643 2.48043 1 2.73478 1 3V13H3V3C3 2.73478 3.10536 2.48043 3.29289 2.29289C3.48043 2.10536 3.73478 2 4 2C4.26522 2 4.51957 2.10536 4.70711 2.29289C4.89464 2.48043 5 2.73478 5 3V14C5 14.5304 4.78929 15.0391 4.41421 15.4142C4.03914 15.7893 3.53043 16 3 16V18C4.15 18 5.25 17.5 6 16.62C6.34363 17.0179 6.76281 17.3437 7.23326 17.5785C7.7037 17.8133 8.21606 17.9524 8.74065 17.9877C9.26524 18.0231 9.79162 17.954 10.2893 17.7844C10.787 17.6149 11.2461 17.3483 11.64 17C13.31 15.58 13.5 13.05 12.04 11.38C11.6622 10.9451 11.195 10.5967 10.6704 10.3586C10.1459 10.1205 9.57611 9.99815 9 10ZM9 16C8.46957 16 7.96086 15.7893 7.58579 15.4142C7.21071 15.0391 7 14.5304 7 14C7 13.4696 7.21071 12.9609 7.58579 12.5858C7.96086 12.2107 8.46957 12 9 12C9.53043 12 10.0391 12.2107 10.4142 12.5858C10.7893 12.9609 11 13.4696 11 14C11 14.5304 10.7893 15.0391 10.4142 15.4142C10.0391 15.7893 9.53043 16 9 16Z" fill="white"/>
</svg>
