<svg width="21" height="20" viewBox="0 0 21 20" fill="none" xmlns="http://www.w3.org/2000/svg">
<path d="M18.0073 15C18.0073 15.7956 17.6912 16.5587 17.1286 17.1213C16.566 17.6839 15.803 18 15.0073 18C14.2244 17.9606 13.484 17.6319 12.9297 17.0776C12.3754 16.5233 12.0467 15.7829 12.0073 15C12.1673 13.39 12.5073 11.8 13.0073 10.26C13.5473 8.55 13.8773 6.79 14.0073 5C13.9729 3.68476 13.4351 2.43288 12.5048 1.50254C11.5744 0.572213 10.3225 0.0343896 9.00731 0C7.69207 0.0343896 6.44018 0.572213 5.50985 1.50254C4.57952 2.43288 4.04169 3.68476 4.00731 5C4.15731 6.53 4.50731 8.03 5.00731 9.5L5.21731 10.2C3.10731 9.53 0.867305 10.7 0.197305 12.8C-0.492695 14.91 0.687305 17.16 2.79731 17.83C4.90731 18.5 7.14731 17.33 7.81731 15.22C7.94731 14.83 8.00731 14.41 8.00731 14C7.84731 12.27 7.50731 10.56 6.9173 8.92C6.4743 7.64974 6.16921 6.33552 6.00731 5C6.04671 4.2171 6.37543 3.47672 6.92973 2.92242C7.48402 2.36813 8.2244 2.03941 9.00731 2C10.6273 2.08 11.9273 3.38 12.0073 5C11.8448 6.61127 11.5095 8.20039 11.0073 9.74C10.4673 11.45 10.1373 13.21 10.0073 15C10.0417 16.3152 10.5795 17.5671 11.5098 18.4975C12.4402 19.4278 13.6921 19.9656 15.0073 20C16.3334 20 17.6052 19.4732 18.5428 18.5355C19.4805 17.5979 20.0073 16.3261 20.0073 15H18.0073ZM4.00731 16C3.47687 16 2.96816 15.7893 2.59309 15.4142C2.21802 15.0391 2.00731 14.5304 2.00731 14C2.00731 13.4696 2.21802 12.9609 2.59309 12.5858C2.96816 12.2107 3.47687 12 4.00731 12C4.53774 12 5.04645 12.2107 5.42152 12.5858C5.79659 12.9609 6.00731 13.4696 6.00731 14C6.00731 14.5304 5.79659 15.0391 5.42152 15.4142C5.04645 15.7893 4.53774 16 4.00731 16Z" fill="white"/>
</svg>
