<svg width="12" height="13" viewBox="0 0 12 13" fill="none" xmlns="http://www.w3.org/2000/svg">
<path d="M7.55041 1.57979C7.34851 1.37327 7.10735 1.20916 6.8411 1.09712C6.57485 0.985084 6.28888 0.927368 6 0.927368C5.71112 0.927368 5.42515 0.985084 5.1589 1.09712C4.89265 1.20916 4.65149 1.37327 4.44959 1.57979L3.98305 2.05813L3.31548 2.04989C3.02651 2.04647 2.73978 2.10084 2.47214 2.2098C2.2045 2.31876 1.96136 2.48011 1.75702 2.68436C1.55267 2.88862 1.39125 3.13165 1.28224 3.39917C1.17323 3.6667 1.11884 3.9533 1.12226 4.24214L1.12976 4.90942L0.652712 5.37576C0.446097 5.57757 0.281919 5.81862 0.169829 6.08476C0.0577396 6.35089 0 6.63673 0 6.92549C0 7.21424 0.0577396 7.50008 0.169829 7.76622C0.281919 8.03235 0.446097 8.2734 0.652712 8.47521L1.13051 8.94155L1.12226 9.60883C1.11884 9.89767 1.17323 10.1843 1.28224 10.4518C1.39125 10.7193 1.55267 10.9624 1.75702 11.1666C1.96136 11.3709 2.2045 11.5322 2.47214 11.6412C2.73978 11.7501 3.02651 11.8045 3.31548 11.8011L3.98305 11.7936L4.44959 12.2704C4.65149 12.477 4.89265 12.6411 5.1589 12.7531C5.42515 12.8651 5.71112 12.9229 6 12.9229C6.28888 12.9229 6.57485 12.8651 6.8411 12.7531C7.10735 12.6411 7.34851 12.477 7.55041 12.2704L8.01695 11.7928L8.68452 11.8011C8.97349 11.8045 9.26022 11.7501 9.52786 11.6412C9.7955 11.5322 10.0386 11.3709 10.243 11.1666C10.4473 10.9624 10.6088 10.7193 10.7178 10.4518C10.8268 10.1843 10.8812 9.89767 10.8777 9.60883L10.8702 8.94155L11.3473 8.47521C11.5539 8.2734 11.7181 8.03235 11.8302 7.76622C11.9423 7.50008 12 7.21424 12 6.92549C12 6.63673 11.9423 6.35089 11.8302 6.08476C11.7181 5.81862 11.5539 5.57757 11.3473 5.37576L10.8695 4.90942L10.8777 4.24214C10.8812 3.9533 10.8268 3.6667 10.7178 3.39917C10.6088 3.13165 10.4473 2.88862 10.243 2.68436C10.0386 2.48011 9.7955 2.31876 9.52786 2.2098C9.26022 2.10084 8.97349 2.04647 8.68452 2.04989L8.01695 2.05738L7.55041 1.58054V1.57979Z" fill="#1F8FF7"/>
<path fill-rule="evenodd" clip-rule="evenodd" d="M8.69219 4.96206C8.98159 5.23471 8.99506 5.69024 8.72229 5.97951L6.04363 8.82017C5.77992 9.09982 5.34293 9.12307 5.05101 8.87297L3.37085 7.43345C3.0689 7.17476 3.03393 6.72038 3.29274 6.41856C3.55155 6.11675 4.00613 6.0818 4.30808 6.34049L5.46675 7.33321L7.6743 4.99215C7.94707 4.70288 8.4028 4.68941 8.69219 4.96206Z" fill="white"/>
</svg>
