<svg width="28" height="27" viewBox="0 0 28 27" fill="none" xmlns="http://www.w3.org/2000/svg">
<g filter="url(#filter0_d_219_296)">
<path d="M9.64102 5.92677C9.64102 5.92677 8.92307 4.83365 7.48717 4.93302C5.94871 5.0324 4.41025 6.82114 6.05128 8.90801C7.28205 10.3986 8.82051 11.293 9.33333 11.5911C9.53846 11.6905 9.64102 11.6905 9.84615 11.5911C10.4615 11.293 11.8974 10.3986 13.1282 8.90801C14.7692 6.82114 13.2308 5.0324 11.6923 4.93302C10.2564 4.83365 9.64102 5.92677 9.64102 5.92677ZM12.1026 12.883C12.1026 12.883 12.9231 12.5849 13.2308 11.9886C13.5385 11.4918 14.5641 9.90176 14.6667 9.00739C14.8718 8.21239 15.0769 6.92052 15.0769 6.52302C15.1795 6.12552 15.3846 5.62865 15.8974 5.4299C16.4103 5.23115 17.2308 5.52927 17.641 6.52302C18.0513 7.61614 18.1538 8.60989 17.9487 9.90176C17.641 11.293 17.4359 11.8893 17.4359 11.8893H19.5897H21.8462H22.6667C23.3846 11.8893 24 12.4855 24 13.1811C24 14.0755 23.3846 14.473 22.6667 14.473L22.5641 14.5724C22.5641 14.5724 22.5641 14.5724 22.6667 14.5724C23.0769 14.8705 23.3846 15.268 23.3846 15.7649C23.3846 16.6592 22.7692 17.0567 22.0513 17.1561H21.9487C21.9487 17.1561 21.9487 17.2555 22.0513 17.2555C22.4615 17.4542 22.7692 17.8517 22.7692 18.448C22.7692 19.243 22.1538 19.6405 21.4359 19.7399H21.3333C21.3333 19.8392 21.3333 19.8392 21.4359 19.8392C21.8462 20.038 22.1538 20.5349 22.1538 21.0317C22.1538 21.7274 21.5385 22.3236 20.8205 22.3236H19.4872H17.7436H12.1026V12.883ZM10.4615 12.5849H4V22.9199H10.4615L11.2821 22.2242V13.2805L10.4615 12.5849Z" fill="white"/>
</g>
<defs>
<filter id="filter0_d_219_296" x="0" y="0.926636" width="28" height="25.9932" filterUnits="userSpaceOnUse" color-interpolation-filters="sRGB">
<feFlood flood-opacity="0" result="BackgroundImageFix"/>
<feColorMatrix in="SourceAlpha" type="matrix" values="0 0 0 0 0 0 0 0 0 0 0 0 0 0 0 0 0 0 127 0" result="hardAlpha"/>
<feOffset/>
<feGaussianBlur stdDeviation="2"/>
<feComposite in2="hardAlpha" operator="out"/>
<feColorMatrix type="matrix" values="0 0 0 0 0 0 0 0 0 0 0 0 0 0 0 0 0 0 0.4 0"/>
<feBlend mode="normal" in2="BackgroundImageFix" result="effect1_dropShadow_219_296"/>
<feBlend mode="normal" in="SourceGraphic" in2="effect1_dropShadow_219_296" result="shape"/>
</filter>
</defs>
</svg>
