<svg width="17" height="16" viewBox="0 0 17 16" fill="none" xmlns="http://www.w3.org/2000/svg">
<path d="M11.5533 7.99738L16.3214 12.7973C16.7913 13.2703 16.7913 14.0351 16.3214 14.5031L15.1918 15.6402C14.722 16.1132 13.9622 16.1132 13.4974 15.6402L8.67394 10.7947L3.85551 15.6453C3.38566 16.1182 2.62591 16.1182 2.16106 15.6453L1.02643 14.5081C0.556582 14.0351 0.556582 13.2703 1.02643 12.8024L5.79439 8.00262L1.02621 3.20267C0.556366 2.72969 0.556366 1.96487 1.02621 1.49693L2.15585 0.359765C2.62569 -0.113213 3.38544 -0.113213 3.85029 0.359765L8.67372 5.20528L13.4921 0.354734C13.962 -0.118245 14.7217 -0.118245 15.1866 0.354734L16.3212 1.49189C16.7911 1.96487 16.7911 2.72969 16.3212 3.19764L11.5533 7.99738Z" fill="white"/>
</svg>
