<svg width="34" height="25" viewBox="0 0 34 25" fill="none" xmlns="http://www.w3.org/2000/svg">
<path fill-rule="evenodd" clip-rule="evenodd" d="M16.7217 12.8815L16.7711 12.1233V12.1734L16.7896 11.8288C16.7649 12.211 16.6908 15.5195 15.4315 14.3164C12.1843 11.196 11.0731 12.7249 8.40622 11.1584C7.66542 10.726 7.00487 9.94277 7.02957 9.02795C6.78264 13.2387 12.1905 11.2962 15.3883 14.7675C16.1229 15.5633 16.5118 14.5232 16.6229 13.7149L16.7217 12.8815ZM27.1608 9.49789L27.2102 8.85877C26.7842 11.9541 22.8889 10.6822 18.2897 14.2976C17.9564 14.5608 16.6785 15.1874 16.6785 14.2224C16.518 16.9544 18.8762 13.5332 22.5864 12.4304C24.247 11.9416 26.6731 11.4842 27.1608 9.49789ZM17.0612 14.2349C17.0612 14.2412 17.0551 14.2537 17.0551 14.26C17.5242 14.7738 19.1725 12.5181 22.9135 11.4779C33.4946 8.53921 20.0059 2.45498 17.7588 7.52412C17.4378 8.2447 17.8391 12.0105 17.0612 14.2349ZM9.54829 6.79101C6.96166 7.88128 5.84429 10.2999 10.9002 11.5657C15.0302 12.6058 15.1043 13.8089 15.7401 14.0658C16.7526 14.4605 16.8081 8.68332 14.9932 7.31735C13.4498 6.15815 11.2892 6.22707 9.54829 6.79101ZM17.1106 0.800771C29.7104 0.919824 38.3901 10.7198 30.2968 18.0885C20.2837 27.1929 -1.94028 20.7515 1.1896 9.47283C2.94282 3.1505 10.9188 0.744378 17.1106 0.800771ZM1.1896 16.3215C0.596959 14.9117 0.621652 13.4078 0.572266 11.8977C0.763639 14.0407 1.1896 13.552 1.1896 16.3215ZM2.62798 18.8091C1.55382 17.4619 1.59704 17.1423 1.59704 15.3189C2.5786 17.1611 2.62798 16.2275 2.62798 18.8091ZM4.06637 20.3317C2.81936 19.2101 3.02925 19.1976 3.02925 17.3554L4.06637 18.3767V20.3317ZM5.49858 21.4533L4.46764 20.6763V18.7151L5.49858 19.4795V21.4533ZM6.93697 22.3243L5.89985 21.7165V19.7427L6.93697 20.3442V22.3243ZM8.36918 23.0198L7.33823 22.5373V20.551L8.36918 21.0335V23.0198ZM9.80757 23.5775L8.77662 23.189V21.1964L9.80757 21.5786V23.5775ZM11.2398 24.0161L10.2088 23.709V21.7102L11.2398 22.011V24.0161ZM12.6782 24.3482L11.6472 24.1163V22.1175L12.6782 22.3431V24.3482ZM14.1104 24.5863L13.0794 24.4234V22.4183L14.1104 22.5749V24.5863ZM15.5488 24.7429L14.5178 24.6364V22.625L15.5488 22.7253V24.7429ZM16.981 24.8118L15.95 24.768V22.7566L16.981 22.7942V24.8118ZM18.4194 24.7993L17.3884 24.8181V22.7942L18.4194 22.7754V24.7993ZM19.8577 24.7053L18.8206 24.7805V22.7566L19.8577 22.6752V24.7053ZM21.29 24.5236L20.259 24.6615V22.6313L21.29 22.4934V24.5236ZM22.7283 24.2542L21.6974 24.4547V22.4245L22.7283 22.2177V24.2542ZM24.1606 23.8782L23.1296 24.1602V22.1238L24.1606 21.8418V23.8782ZM25.5989 23.3957L24.568 23.7529V21.7165L25.5989 21.353V23.3957ZM27.0312 22.7754L26.0002 23.2391V21.1901L27.0312 20.7265V22.7754ZM28.4695 21.9922L27.4386 22.5749V20.5197L28.4695 19.9307V21.9922ZM29.9018 20.9959L28.8708 21.7415V19.6738L29.9018 18.9219V20.9959ZM31.3401 19.6675L30.3092 20.6638V18.5835L31.3401 17.5684V19.6675ZM32.7785 17.6499L31.7414 19.1976C31.7414 16.3403 31.7538 17.4556 32.7785 15.5007V17.6499ZM33.7292 11.81C33.791 13.5645 33.865 15.1623 33.1798 16.7977C33.1798 13.3514 33.6675 14.1096 33.7292 11.81ZM17.1168 1.41483C28.4819 1.52135 36.8282 10.4691 29.0869 17.299C20.0244 25.2943 -0.100627 19.7928 2.50452 9.48536C3.99229 3.60164 11.4126 1.36471 17.1168 1.41483ZM17.1168 1.6592C27.951 1.75946 36.2356 10.3375 28.6115 16.9857C19.8948 24.5925 0.621652 19.3793 3.02925 9.48536C4.41825 3.78962 11.6102 1.60908 17.1168 1.6592Z" fill="white"/>
</svg>
