<svg width="26" height="27" viewBox="0 0 26 27" fill="none" xmlns="http://www.w3.org/2000/svg">
<path d="M8.85377 0.737778C7.75284 0.725061 6.77434 1.276 6.21031 2.153C5.67341 1.26328 4.71217 0.689936 3.61124 0.677218C1.8812 0.657233 0.443528 2.08638 0.416404 3.85311C0.367498 7.03857 6.08455 10.3442 6.08455 10.3442C6.08455 10.3442 11.9007 7.19857 11.95 3.98634C11.9771 2.21962 10.5838 0.757763 8.85377 0.737778Z" fill="white"/>
<path d="M0.424654 11.3436C0.341426 11.9482 0.282687 12.5631 0.273082 13.1888C0.18865 18.6882 3.05768 23.5103 7.37584 26.0985L8.21606 24.3521L8.40018 12.3592L7.51237 11.4254L0.424654 11.3436ZM25.5231 12.557C25.5373 11.6337 24.6495 10.6999 23.7475 10.6895L16.5365 10.6062C17.0134 8.76479 17.4951 6.92846 17.5093 6.00516C17.5377 4.15854 16.664 2.30656 16.2226 1.8372C16.2128 1.827 15.7811 1.37289 14.8791 1.36247C13.5286 1.34687 13.5074 2.72931 13.5074 2.72931C13.507 2.75453 13.0234 5.02987 13.0092 5.95317C12.9951 6.87648 11.1345 10.5438 10.2183 11.4567L9.30929 11.9054L9.11099 24.8216L10.0059 25.2912L19.9179 25.4056C21.7219 25.4265 22.638 24.5136 22.6522 23.5903C22.6664 22.667 21.7786 21.7333 20.8766 21.7228C22.6805 21.7437 23.5967 20.8308 23.6109 19.9075C23.6251 18.9842 22.7372 18.0505 21.8353 18.04C23.6392 18.0609 24.5554 17.148 24.5696 16.2247C24.5837 15.3014 23.6959 14.3677 22.7939 14.3572C24.5928 14.3932 25.5089 13.4803 25.5231 12.557Z" fill="white"/>
</svg>
