<svg width="35" height="35" viewBox="0 0 35 35" fill="none" xmlns="http://www.w3.org/2000/svg">
<path fill-rule="evenodd" clip-rule="evenodd" d="M17.5 0C17.5 0 15.138 4.96716 13.5604 7.86132C11.983 10.7553 12.0097 13.2143 13.2601 15.4515C14.2103 17.1514 16.0303 20.1595 16.4201 24.3781H15.6366C15.5585 23.1359 15.2954 21.9184 14.8677 20.9297C13.5804 17.9535 9.9433 13.4995 4.36504 14.5669C-1.21323 15.6343 -1.92836 23.9675 5.05974 25.3427C2.21569 18.1185 12.2667 18.9269 13.5998 24.3781H12.739C12.1996 24.3781 11.7583 24.8213 11.7583 25.3632C11.7583 25.9051 12.1996 26.3485 12.739 26.3485H13.6819C13.0389 29.9524 7.68244 27.4134 10.4337 24.7474C6.00727 24.117 5.06912 30.2305 9.71298 31.2024C13.4916 31.9932 15.2644 29.5603 15.601 26.3485H16.4916C16.4768 27.1123 16.4126 27.9096 16.2884 28.7398C15.5528 29.2529 15.4751 29.7988 15.3035 30.2833C15.1318 30.7675 14.6332 31.9991 13.9712 32.2865C14.9029 32.3276 15.5649 32.1797 15.9818 31.7775C16.0718 32.3686 16.2923 33.128 16.7419 33.5878C17.1915 34.0476 17.4756 34.7946 17.5081 35C17.51 34.8631 17.5081 34.7083 17.5033 34.5379C17.5048 34.7073 17.5065 34.8639 17.5081 35C17.5409 34.7946 17.8085 34.0476 18.2581 33.5878C18.7077 33.128 18.9284 32.3686 19.0182 31.7775C19.4351 32.1797 20.0971 32.3276 21.0288 32.2865C20.3668 31.9991 19.8682 30.7675 19.6967 30.2833C19.5249 29.7988 19.4474 29.2529 18.7118 28.7398C18.5874 27.9096 18.5232 27.1123 18.5086 26.3485H19.3992C19.7358 29.5603 21.5084 31.9932 25.2872 31.2024C29.9309 30.2305 28.9927 24.117 24.5663 24.7474C27.3178 27.4134 21.9611 29.9524 21.3181 26.3485H22.261C22.8004 26.3485 23.2417 25.9051 23.2417 25.3632C23.2417 24.8213 22.8004 24.3781 22.261 24.3781H21.4002C22.7333 18.9269 32.7843 18.1185 29.9403 25.3427C36.9284 23.9675 36.2132 15.6343 30.635 14.5669C25.0567 13.4995 21.4196 17.9535 20.1323 20.9297C19.7046 21.9184 19.4418 23.1359 19.3634 24.3781H18.5799C18.9697 20.1595 20.7899 17.1514 21.7399 15.4515C22.9905 13.2143 23.017 10.7553 21.4396 7.86132C19.8622 4.96716 17.5 0 17.5 0V0Z" fill="#7B8491"/>
</svg>
