<svg width="30" height="28" viewBox="0 0 30 28" fill="none" xmlns="http://www.w3.org/2000/svg">
<path fill-rule="evenodd" clip-rule="evenodd" d="M4.31126 22.3049L5.39678 3.43849C5.40076 3.36417 5.40607 3.29251 5.41536 3.22085L2.16545 3.71849C1.47141 3.82598 0.883533 4.20551 0.497366 4.73235C0.112526 5.25652 -0.0745861 5.92933 0.0275955 6.62072C1.02553 12.8485 1.89208 19.1094 2.89797 25.3359C3.00944 26.0193 3.38765 26.5992 3.90784 26.9801C4.43468 27.3676 5.11146 27.5547 5.80683 27.4485L12.0187 26.4957L7.83056 26.2542C6.80476 26.1958 5.89441 25.7221 5.25744 25.0068C4.61781 24.2928 4.25287 23.3347 4.31126 22.3049ZM12.5774 2.12207L8.6228 20.4922C8.4755 21.177 8.6228 21.863 8.97712 22.4124C9.33276 22.9618 9.89675 23.3785 10.5828 23.5271L18.9524 25.3279L19.7898 25.5084L20.509 25.6623L21.0107 25.7712L22.1214 26.01L22.899 26.1772C22.9097 26.1799 22.9203 26.1825 22.9322 26.1839C23.609 26.3205 24.2805 26.1732 24.8193 25.8256C25.37 25.4673 25.7867 24.9033 25.934 24.2172L29.9098 5.74222C30.0571 5.05747 29.9098 4.37139 29.5554 3.82067C29.2024 3.27128 28.6385 2.85592 27.9511 2.70729L24.5791 1.98273L23.4126 1.73059L20.8063 1.17058L17.0468 0.361093L15.6348 0.057202C15.1133 -0.0555959 14.5918 0.00279358 14.13 0.193887C13.984 0.253603 13.8447 0.32659 13.7133 0.41152C13.566 0.50574 13.4293 0.615884 13.3046 0.739298C13.2767 0.765839 13.2502 0.792379 13.225 0.820247C13.0883 0.966221 12.9688 1.12945 12.8693 1.30727C12.8348 1.36566 12.8043 1.42803 12.7751 1.4904C12.6981 1.65628 12.6397 1.83145 12.5999 2.01723L12.5774 2.12207ZM7.46032 20.2414L11.3193 2.31449L11.4374 1.76642C11.4427 1.74254 11.4481 1.71732 11.4534 1.69211C11.4905 1.53419 11.5383 1.38158 11.594 1.23295L10.8217 1.18916L9.27703 1.10025C8.60157 1.06177 7.96857 1.294 7.48686 1.70007C7.46828 1.716 7.45103 1.73059 7.43245 1.74652C7.22676 1.93097 7.05026 2.14728 6.91225 2.3888C6.79813 2.58786 6.70921 2.80284 6.65215 3.03109C6.61234 3.18502 6.58713 3.34427 6.57784 3.50749L5.49365 22.3739C5.45384 23.0733 5.70465 23.7288 6.14124 24.2185C6.57651 24.7095 7.20022 25.032 7.90089 25.0731L13.6536 25.4036L10.3333 24.6896C9.32613 24.472 8.49938 23.8629 7.97919 23.0574C7.45899 22.2532 7.24401 21.2486 7.46032 20.2414ZM17.6692 18.3597C16.7058 16.5483 13.9362 14.0534 13.911 11.2494C13.8818 7.8522 17.9877 6.50394 19.9358 9.69944C23.3993 7.84822 26.0879 11.1764 24.4278 14.003C23.0079 16.4209 19.3957 17.2516 17.6692 18.3597Z" fill="white"/>
</svg>
