<svg width="40" height="28" viewBox="0 0 40 28" fill="none" xmlns="http://www.w3.org/2000/svg">
<path fill-rule="evenodd" clip-rule="evenodd" d="M14.8699 5.21748C11.5471 2.61503 6.84283 2.72355 3.64358 5.60125C0.614942 8.20488 -0.242821 12.9998 2.34466 16.8326C3.18551 18.1122 4.61064 19.3382 6.37095 19.9519C12.526 22.0362 14.8298 22.8585 16.8798 26.5468C17.2708 27.2216 18.6462 27.2246 18.8032 26.1119C19.6867 19.5057 20.1432 9.06233 14.8699 5.21748Z" fill="white"/>
<path fill-rule="evenodd" clip-rule="evenodd" d="M37.1997 16.3487C35.1328 18.7349 31.6996 19.8251 28.2377 21.3055C25.2243 22.6803 23.4699 24.9086 21.267 27.2426C20.4367 28.1587 18.8062 27.533 19.1339 26.1462C21.0319 19.1885 19.8547 12.2545 20.3138 8.78825C21.7318 0.905491 29.9735 -1.27187 35.0627 2.00842C40.0748 5.16656 41.1041 11.9203 37.1997 16.3487Z" fill="white"/>
</svg>
