<svg width="40" height="28" viewBox="0 0 40 28" fill="none" xmlns="http://www.w3.org/2000/svg">
<path fill-rule="evenodd" clip-rule="evenodd" d="M14.8694 5.21748C11.5467 2.61503 6.84234 2.72355 3.64309 5.60125C0.614453 8.20488 -0.24331 12.9998 2.34417 16.8326C3.18502 18.1122 4.61015 19.3382 6.37046 19.9519C12.5255 22.0362 14.8293 22.8585 16.8793 26.5468C17.2703 27.2216 18.6457 27.2246 18.8027 26.1119C19.6863 19.5057 20.1427 9.06233 14.8694 5.21748Z" fill="#7B8491"/>
<path fill-rule="evenodd" clip-rule="evenodd" d="M37.1992 16.3487C35.1323 18.7349 31.6991 19.8251 28.2373 21.3055C25.2238 22.6803 23.4694 24.9086 21.2666 27.2426C20.4362 28.1587 18.8057 27.533 19.1334 26.1462C21.0314 19.1885 19.8542 12.2545 20.3133 8.78825C21.7313 0.905491 29.973 -1.27187 35.0622 2.00842C40.0743 5.16656 41.1036 11.9203 37.1992 16.3487Z" fill="#7B8491"/>
</svg>
