<svg width="31" height="28" viewBox="0 0 31 28" fill="none" xmlns="http://www.w3.org/2000/svg">
<path fill-rule="evenodd" clip-rule="evenodd" d="M0.166016 1.92793C0.166016 1.15933 0.791922 0.536255 1.56402 0.536255H29.5241C30.2961 0.536255 30.9221 1.15933 30.9221 1.92793V22.8031C30.9221 23.5717 30.2961 24.1947 29.5241 24.1947H13.7771L7.08223 27.527C6.64886 27.7427 6.1342 27.7197 5.72205 27.4661C5.3099 27.2125 5.05902 26.7646 5.05902 26.2823V24.1947H1.56402C0.791922 24.1947 0.166016 23.5717 0.166016 22.8031V1.92793ZM2.96202 3.31961V21.4114H6.45702C7.22912 21.4114 7.85503 22.0345 7.85503 22.8031V24.0305L12.8218 21.5583C13.0159 21.4617 13.23 21.4114 13.447 21.4114H28.1261V3.31961H2.96202ZM10.651 6.7988C11.4231 6.7988 12.049 7.42187 12.049 8.19047V8.88631C12.049 9.65491 11.4231 10.278 10.651 10.278C9.87893 10.278 9.25303 9.65491 9.25303 8.88631V8.19047C9.25303 7.42187 9.87893 6.7988 10.651 6.7988ZM20.437 6.7988C21.2091 6.7988 21.835 7.42187 21.835 8.19047V8.88631C21.835 9.65491 21.2091 10.278 20.437 10.278C19.6649 10.278 19.039 9.65491 19.039 8.88631V8.19047C19.039 7.42187 19.6649 6.7988 20.437 6.7988Z" fill="white"/>
<path fill-rule="evenodd" clip-rule="evenodd" d="M11.8958 13.8195C11.547 13.1402 10.7126 12.8664 10.0258 13.2082C9.33521 13.552 9.05529 14.3879 9.40058 15.0754L10.651 14.453C9.40058 15.0754 9.40121 15.0766 9.40121 15.0766L9.40187 15.0779L9.40331 15.0807L9.40659 15.0872L9.41486 15.1032C9.42113 15.1152 9.42894 15.1299 9.4383 15.1471C9.457 15.1814 9.48199 15.226 9.51346 15.2791C9.57631 15.3853 9.66563 15.527 9.78324 15.6923C10.0174 16.0213 10.3703 16.4531 10.8581 16.8848C11.8455 17.7585 13.3872 18.628 15.544 18.628C17.7008 18.628 19.2425 17.7585 20.2299 16.8848C20.7177 16.4531 21.0706 16.0213 21.3048 15.6923C21.4224 15.527 21.5117 15.3853 21.5745 15.2791C21.606 15.226 21.631 15.1814 21.6497 15.1471C21.6591 15.1299 21.6669 15.1152 21.6731 15.1032L21.6814 15.0872L21.6847 15.0807L21.6868 15.0766C21.6868 15.0766 21.6874 15.0754 20.437 14.453L21.6874 15.0754C22.0327 14.3879 21.7528 13.552 21.0622 13.2082C20.3754 12.8664 19.5409 13.1402 19.1922 13.8195L19.1912 13.8214C19.1877 13.8278 19.1793 13.8431 19.1657 13.866C19.1384 13.9121 19.0912 13.9878 19.0232 14.0835C18.886 14.2763 18.6709 14.5403 18.3723 14.8045C17.787 15.3225 16.8822 15.8447 15.544 15.8447C14.2058 15.8447 13.301 15.3225 12.7157 14.8045C12.4171 14.5403 12.202 14.2763 12.0648 14.0835C11.9968 13.9878 11.9496 13.9121 11.9223 13.866C11.9087 13.8431 11.9003 13.8278 11.8968 13.8214L11.8958 13.8195Z" fill="white"/>
</svg>
