<svg width="31" height="28" viewBox="0 0 31 28" fill="none" xmlns="http://www.w3.org/2000/svg">
<path fill-rule="evenodd" clip-rule="evenodd" d="M0.166504 1.92793C0.166504 1.15933 0.792411 0.536255 1.56451 0.536255H29.5245C30.2966 0.536255 30.9225 1.15933 30.9225 1.92793V22.8031C30.9225 23.5717 30.2966 24.1947 29.5245 24.1947H13.7775L7.08272 27.527C6.64935 27.7427 6.13469 27.7197 5.72254 27.4661C5.31038 27.2125 5.05951 26.7646 5.05951 26.2823V24.1947H1.56451C0.792411 24.1947 0.166504 23.5717 0.166504 22.8031V1.92793ZM2.96251 3.31961V21.4114H6.45751C7.22961 21.4114 7.85551 22.0345 7.85551 22.8031V24.0305L12.8223 21.5583C13.0164 21.4617 13.2305 21.4114 13.4475 21.4114H28.1265V3.31961H2.96251ZM10.6515 6.7988C11.4236 6.7988 12.0495 7.42187 12.0495 8.19047V8.88631C12.0495 9.65491 11.4236 10.278 10.6515 10.278C9.87942 10.278 9.25352 9.65491 9.25352 8.88631V8.19047C9.25352 7.42187 9.87942 6.7988 10.6515 6.7988ZM20.4375 6.7988C21.2096 6.7988 21.8355 7.42187 21.8355 8.19047V8.88631C21.8355 9.65491 21.2096 10.278 20.4375 10.278C19.6654 10.278 19.0395 9.65491 19.0395 8.88631V8.19047C19.0395 7.42187 19.6654 6.7988 20.4375 6.7988Z" fill="#7B8491"/>
<path fill-rule="evenodd" clip-rule="evenodd" d="M11.8963 13.8195C11.5475 13.1402 10.7131 12.8664 10.0263 13.2082C9.33569 13.552 9.05578 14.3879 9.40107 15.0754L10.6515 14.453C9.40107 15.0754 9.4017 15.0766 9.4017 15.0766L9.40236 15.0779L9.40379 15.0807L9.40708 15.0872L9.41535 15.1032C9.42162 15.1152 9.42943 15.1299 9.43878 15.1471C9.45749 15.1814 9.48247 15.226 9.51395 15.2791C9.5768 15.3853 9.66612 15.527 9.78373 15.6923C10.0179 16.0213 10.3708 16.4531 10.8586 16.8848C11.846 17.7585 13.3877 18.628 15.5445 18.628C17.7013 18.628 19.243 17.7585 20.2304 16.8848C20.7182 16.4531 21.0711 16.0213 21.3053 15.6923C21.4229 15.527 21.5122 15.3853 21.575 15.2791C21.6065 15.226 21.6315 15.1814 21.6502 15.1471C21.6596 15.1299 21.6674 15.1152 21.6736 15.1032L21.6819 15.0872L21.6852 15.0807L21.6873 15.0766C21.6873 15.0766 21.6879 15.0754 20.4375 14.453L21.6879 15.0754C22.0332 14.3879 21.7533 13.552 21.0627 13.2082C20.3758 12.8664 19.5414 13.1402 19.1927 13.8195L19.1917 13.8214C19.1882 13.8278 19.1797 13.8431 19.1662 13.866C19.1389 13.9121 19.0917 13.9878 19.0236 14.0835C18.8864 14.2763 18.6714 14.5403 18.3728 14.8045C17.7875 15.3225 16.8827 15.8447 15.5445 15.8447C14.2063 15.8447 13.3015 15.3225 12.7161 14.8045C12.4176 14.5403 12.2025 14.2763 12.0653 14.0835C11.9973 13.9878 11.9501 13.9121 11.9228 13.866C11.9092 13.8431 11.9008 13.8278 11.8973 13.8214L11.8963 13.8195Z" fill="#7B8491"/>
</svg>
