<svg width="32" height="23" viewBox="0 0 32 23" fill="none" xmlns="http://www.w3.org/2000/svg">
<path d="M18.0899 5.74509C18.0899 7.24569 17.4773 8.68484 16.3867 9.74593C15.2962 10.807 13.8171 11.4031 12.2748 11.4031C10.7325 11.4031 9.25342 10.807 8.16287 9.74593C7.07233 8.68484 6.45966 7.24569 6.45966 5.74509C6.45966 4.24448 7.07233 2.80533 8.16287 1.74424C9.25342 0.683151 10.7325 0.0870361 12.2748 0.0870361C13.8171 0.0870361 15.2962 0.683151 16.3867 1.74424C17.4773 2.80533 18.0899 4.24448 18.0899 5.74509ZM0.644531 20.8332C0.644531 22.7192 2.58291 22.7192 2.58291 22.7192H21.9667C21.9667 22.7192 23.9051 22.7192 23.9051 20.8332C23.9051 18.9472 21.9667 13.2892 12.2748 13.2892C2.58291 13.2892 0.644531 18.9472 0.644531 20.8332ZM26.8126 5.57534C29.5011 2.88777 36.2234 7.59338 26.8126 13.6418C17.4037 7.59338 24.1241 2.88777 26.8126 5.57723V5.57534Z" fill="white"/>
</svg>
