<svg width="31" height="23" viewBox="0 0 31 23" fill="none" xmlns="http://www.w3.org/2000/svg">
<path d="M17.4274 5.6306C17.4274 7.124 16.8271 8.55622 15.7585 9.61221C14.6899 10.6682 13.2405 11.2615 11.7293 11.2615C10.218 11.2615 8.7687 10.6682 7.70009 9.61221C6.63148 8.55622 6.03115 7.124 6.03115 5.6306C6.03115 4.13721 6.63148 2.70498 7.70009 1.64899C8.7687 0.593004 10.218 -0.000244141 11.7293 -0.000244141C13.2405 -0.000244141 14.6899 0.593004 15.7585 1.64899C16.8271 2.70498 17.4274 4.13721 17.4274 5.6306ZM0.333008 20.6462C0.333008 22.5231 2.23239 22.5231 2.23239 22.5231H21.2262C21.2262 22.5231 23.1256 22.5231 23.1256 20.6462C23.1256 18.7692 21.2262 13.1384 11.7293 13.1384C2.23239 13.1384 0.333008 18.7692 0.333008 20.6462ZM25.9746 5.46168C28.6091 2.78703 35.1961 7.47001 25.9746 13.4894C16.755 7.47001 23.3402 2.78702 25.9746 5.46355V5.46168Z" fill="#7B8491"/>
</svg>
