<svg width="16" height="16" viewBox="0 0 16 16" fill="none" xmlns="http://www.w3.org/2000/svg">
<path d="M10.8794 7.99738L15.6476 12.7973C16.1175 13.2703 16.1175 14.0351 15.6476 14.5031L14.518 15.6402C14.0481 16.1132 13.2884 16.1132 12.8235 15.6402L8.00011 10.7947L3.18168 15.6453C2.71183 16.1182 1.95208 16.1182 1.48723 15.6453L0.3526 14.5081C-0.117246 14.0351 -0.117246 13.2703 0.3526 12.8024L5.12056 8.00262L0.352385 3.20267C-0.117462 2.72969 -0.117462 1.96487 0.352385 1.49693L1.48202 0.359765C1.95186 -0.113213 2.71162 -0.113213 3.17646 0.359765L7.99989 5.20528L12.8183 0.354734C13.2882 -0.118245 14.0479 -0.118245 14.5128 0.354734L15.6474 1.49189C16.1172 1.96487 16.1172 2.72969 15.6474 3.19764L10.8794 7.99738Z" fill="white"/>
</svg>
