<svg width="34" height="25" viewBox="0 0 34 25" fill="none" xmlns="http://www.w3.org/2000/svg">
<path fill-rule="evenodd" clip-rule="evenodd" d="M16.5225 12.0817L16.5719 11.3235V11.3736L16.5904 11.029C16.5657 11.4112 16.4916 14.7197 15.2323 13.5166C11.9851 10.3962 10.8739 11.925 8.207 10.3586C7.4662 9.92621 6.80566 9.14297 6.83035 8.22814C6.58342 12.4389 11.9913 10.4964 15.189 13.9677C15.9237 14.7635 16.3126 13.7234 16.4237 12.9151L16.5225 12.0817ZM26.9616 8.69809L27.011 8.05896C26.585 11.1543 22.6896 9.88235 18.0905 13.4978C17.7571 13.761 16.4793 14.3876 16.4793 13.4226C16.3188 16.1546 18.677 12.7334 22.3871 11.6305C24.0478 11.1418 26.4739 10.6844 26.9616 8.69809ZM16.862 13.4351C16.862 13.4414 16.8558 13.4539 16.8558 13.4602C17.325 13.974 18.9733 11.7183 22.7143 10.6781C33.2954 7.7394 19.8067 1.65517 17.5596 6.72432C17.2386 7.4449 17.6398 11.2107 16.862 13.4351ZM9.34907 5.9912C6.76244 7.08148 5.64507 9.50013 10.701 10.7658C14.831 11.806 14.9051 13.0091 15.5409 13.266C16.5533 13.6607 16.6089 7.88352 14.7939 6.51754C13.2506 5.35834 11.0899 5.42727 9.34907 5.9912ZM16.9114 0.000966418C29.5112 0.120019 38.1909 9.91995 30.0976 17.2887C20.0845 26.3931 -2.1395 19.9517 0.99038 8.67302C2.74361 2.35069 10.7195 -0.055427 16.9114 0.000966418ZM0.99038 15.5217C0.39774 14.1119 0.422434 12.608 0.373047 11.0979C0.56442 13.2409 0.99038 12.7522 0.99038 15.5217ZM2.42877 18.0093C1.35461 16.6621 1.39782 16.3425 1.39782 14.5191C2.37938 16.3613 2.42877 15.4277 2.42877 18.0093ZM3.86715 19.5319C2.62014 18.4103 2.83003 18.3978 2.83003 16.5556L3.86715 17.5769V19.5319ZM5.29936 20.6535L4.26842 19.8765V17.9153L5.29936 18.6797V20.6535ZM6.73775 21.5245L5.70063 20.9167V18.9429L6.73775 19.5444V21.5245ZM8.16996 22.22L7.13902 21.7375V19.7512L8.16996 20.2337V22.22ZM9.60835 22.7776L8.5774 22.3892V20.3966L9.60835 20.7788V22.7776ZM11.0406 23.2163L10.0096 22.9092V20.9104L11.0406 21.2112V23.2163ZM12.4789 23.5484L11.448 23.3165V21.3177L12.4789 21.5433V23.5484ZM13.9112 23.7865L12.8802 23.6236V21.6185L13.9112 21.7751V23.7865ZM15.3495 23.9431L14.3186 23.8366V21.8252L15.3495 21.9255V23.9431ZM16.7818 24.012L15.7508 23.9682V21.9568L16.7818 21.9944V24.012ZM18.2201 23.9995L17.1892 24.0183V21.9944L18.2201 21.9756V23.9995ZM19.6585 23.9055L18.6214 23.9807V21.9568L19.6585 21.8754V23.9055ZM21.0907 23.7238L20.0598 23.8617V21.8315L21.0907 21.6936V23.7238ZM22.5291 23.4544L21.4982 23.6549V21.6247L22.5291 21.4179V23.4544ZM23.9613 23.0784L22.9304 23.3604V21.324L23.9613 21.042V23.0784ZM25.3997 22.5959L24.3688 22.9531V20.9167L25.3997 20.5532V22.5959ZM26.8319 21.9756L25.801 22.4393V20.3903L26.8319 19.9266V21.9756ZM28.2703 21.1924L27.2394 21.7751V19.7199L28.2703 19.1309V21.1924ZM29.7025 20.1961L28.6716 20.9417V18.874L29.7025 18.1221V20.1961ZM31.1409 18.8677L30.11 19.864V17.7837L31.1409 16.7686V18.8677ZM32.5793 16.8501L31.5422 18.3978C31.5422 15.5405 31.5545 16.6558 32.5793 14.7009V16.8501ZM33.53 11.0102C33.5917 12.7647 33.6658 14.3625 32.9806 15.9979C32.9806 12.5516 33.4683 13.3098 33.53 11.0102ZM16.9176 0.615028C28.2827 0.721549 36.629 9.66931 28.8877 16.4992C19.8252 24.4945 -0.299846 18.993 2.3053 8.68556C3.79307 2.80184 11.2134 0.564901 16.9176 0.615028ZM16.9176 0.8594C27.7518 0.959655 36.0364 9.53772 28.4123 16.1859C19.6956 23.7927 0.422433 18.5795 2.83003 8.68556C4.21903 2.98982 11.411 0.809272 16.9176 0.8594Z" fill="white"/>
</svg>
