<svg width="32" height="38" viewBox="0 0 32 38" fill="none" xmlns="http://www.w3.org/2000/svg">
<g filter="url(#filter0_d_569_1001)">
<path d="M16.0112 19.583C15.7723 19.583 15.5484 19.5396 15.3393 19.4527C15.1303 19.3671 14.9362 19.2209 14.757 19.0139L6.51519 9.49426C6.18671 9.11485 6.0153 8.64025 6.00097 8.07045C5.98544 7.50203 6.15685 7.01087 6.51519 6.59697C6.84367 6.21756 7.26173 6.02786 7.76938 6.02786C8.27703 6.02786 8.6951 6.21756 9.02358 6.59697L16.0112 14.6163L22.9989 6.59697C23.3274 6.21756 23.7377 6.01889 24.2298 6.00096C24.7231 5.9844 25.1489 6.18307 25.5073 6.59697C25.8358 6.97638 26 7.45926 26 8.04561C26 8.63197 25.8358 9.11485 25.5073 9.49426L17.2654 19.0139C17.0863 19.2209 16.8922 19.3671 16.6831 19.4527C16.4741 19.5396 16.2501 19.583 16.0112 19.583ZM16.0112 32C15.7723 32 15.5484 31.9565 15.3393 31.8696C15.1303 31.7841 14.9362 31.6378 14.757 31.4309L6.51519 21.9112C6.18671 21.5318 6.0153 21.0572 6.00097 20.4874C5.98544 19.919 6.15685 19.4278 6.51519 19.0139C6.84367 18.6345 7.26173 18.4448 7.76938 18.4448C8.27703 18.4448 8.6951 18.6345 9.02358 19.0139L16.0112 27.0332L22.9989 19.0139C23.3274 18.6345 23.7377 18.4359 24.2298 18.4179C24.7231 18.4014 25.1489 18.6 25.5073 19.0139C25.8358 19.3933 26 19.8762 26 20.4626C26 21.0489 25.8358 21.5318 25.5073 21.9112L17.2654 31.4309C17.0863 31.6378 16.8922 31.7841 16.6831 31.8696C16.4741 31.9565 16.2501 32 16.0112 32Z" fill="white"/>
</g>
<defs>
<filter id="filter0_d_569_1001" x="0" y="0" width="32" height="38" filterUnits="userSpaceOnUse" color-interpolation-filters="sRGB">
<feFlood flood-opacity="0" result="BackgroundImageFix"/>
<feColorMatrix in="SourceAlpha" type="matrix" values="0 0 0 0 0 0 0 0 0 0 0 0 0 0 0 0 0 0 127 0" result="hardAlpha"/>
<feOffset/>
<feGaussianBlur stdDeviation="3"/>
<feComposite in2="hardAlpha" operator="out"/>
<feColorMatrix type="matrix" values="0 0 0 0 0 0 0 0 0 0 0 0 0 0 0 0 0 0 0.25 0"/>
<feBlend mode="normal" in2="BackgroundImageFix" result="effect1_dropShadow_569_1001"/>
<feBlend mode="normal" in="SourceGraphic" in2="effect1_dropShadow_569_1001" result="shape"/>
</filter>
</defs>
</svg>
