<svg width="21" height="15" viewBox="0 0 21 15" fill="none" xmlns="http://www.w3.org/2000/svg">
<path fill-rule="evenodd" clip-rule="evenodd" d="M7.61518 2.58742C5.81529 1.14895 3.26705 1.20893 1.53408 2.79954C-0.106485 4.23867 -0.57112 6.88899 0.830473 9.00752C1.28595 9.71479 2.05791 10.3924 3.01144 10.7317C6.34552 11.8837 7.59345 12.3383 8.70391 14.3769C8.9157 14.7499 9.66071 14.7516 9.74579 14.1366C10.2244 10.4851 10.4716 4.71261 7.61518 2.58742Z" fill="white"/>
<path fill-rule="evenodd" clip-rule="evenodd" d="M19.7108 8.74003C18.5912 10.059 16.7315 10.6616 14.8563 11.4799C13.2239 12.2397 12.2736 13.4714 11.0804 14.7615C10.6306 15.2679 9.74739 14.922 9.92488 14.1555C10.953 10.3097 10.3153 6.47703 10.564 4.56112C11.3322 0.204023 15.7965 -0.999485 18.5532 0.813652C21.2682 2.55927 21.8258 6.29234 19.7108 8.74003Z" fill="white"/>
</svg>
