<svg width="40" height="40" viewBox="0 0 40 40" fill="none" xmlns="http://www.w3.org/2000/svg">
<path d="M13.9435 0.915334C12.2827 0.89615 10.8067 1.72724 9.95584 3.0502C9.14592 1.70805 7.6959 0.843164 6.03515 0.823979C3.42539 0.793832 1.25666 2.94971 1.21575 5.61481C1.14197 10.4201 9.76614 15.4066 9.76614 15.4066C9.76614 15.4066 18.5397 10.6614 18.6141 5.81579C18.655 3.15069 16.5532 0.945481 13.9435 0.915334Z" fill="white"/>
<path d="M1.22819 16.9142C1.10264 17.8262 1.01403 18.7539 0.999543 19.6976C0.872177 27.9936 5.2001 35.2676 11.714 39.1719L12.9815 36.5374L13.2593 18.4462L11.92 17.0377L1.22819 16.9142ZM39.0891 18.7446C39.1105 17.3518 37.7713 15.9432 36.4106 15.9275L25.5329 15.8019C26.2523 13.0241 26.979 10.254 27.0004 8.86116C27.0431 6.07555 25.7251 3.28184 25.0593 2.57381C25.0447 2.55842 24.3933 1.8734 23.0327 1.85768C20.9954 1.83415 20.9634 3.91955 20.9634 3.91955C20.9628 3.95761 20.2334 7.38994 20.212 8.78275C20.1906 10.1756 17.3839 15.7077 16.0019 17.0848L14.6306 17.7617L14.3315 37.2457L15.6815 37.9541L30.6337 38.1268C33.355 38.1582 34.737 36.7811 34.7584 35.3883C34.7798 33.9955 33.4405 32.587 32.0799 32.5713C34.8012 32.6027 36.1832 31.2256 36.2046 29.8328C36.2259 28.44 34.8867 27.0315 33.526 27.0158C36.2473 27.0472 37.6294 25.6701 37.6507 24.2773C37.6721 22.8845 36.3329 21.476 34.9722 21.4603C37.6857 21.5145 39.0677 20.1374 39.0891 18.7446Z" fill="white"/>
</svg>
