<svg width="132" height="45" viewBox="0 0 132 45" fill="none" xmlns="http://www.w3.org/2000/svg">
<defs>
<linearGradient id="paint0_linear_162_803" x1="8.45625" y1="-23.4115" x2="148.422" y2="42.2583" gradientUnits="userSpaceOnUse">
<stop offset="0.09375" stop-color="#D51CFF"/>
<stop offset="0.825376" stop-color="#00FFE1"/>
</linearGradient>
<linearGradient id="paint1_linear_162_803" x1="8.45625" y1="-23.4115" x2="148.422" y2="42.2583" gradientUnits="userSpaceOnUse">
<stop offset="0.09375" stop-color="#D51CFF"/>
<stop offset="0.825376" stop-color="#00FFE1"/>
</linearGradient>
<linearGradient id="paint2_linear_162_803" x1="8.45625" y1="-23.4115" x2="148.422" y2="42.2583" gradientUnits="userSpaceOnUse">
<stop offset="0.09375" stop-color="#D51CFF"/>
<stop offset="0.825376" stop-color="#00FFE1"/>
</linearGradient>
</defs>
<path d="M127.477 20.1629H132L126.017 37.327C125.164 39.7759 124.033 41.5589 122.635 42.6652C121.216 43.7716 119.468 44.2656 117.371 44.1582V40.0444C118.512 40.0659 119.407 39.8081 120.075 39.2818C120.743 38.7663 121.278 37.9177 121.668 36.747L117.063 25.3938C117.875 23.8686 118.841 22.5045 120.003 21.3444L123.848 31.6772L127.477 20.1629ZM129.8 11.3124C129.8 12.9343 129.8 14.5562 129.8 16.178C124.444 16.2747 114.781 18.5303 112.55 37.2948C110.946 37.2948 107.656 37.2948 106.042 37.2948C105.898 32.558 105.333 26.4786 100.275 24.9856C100.275 23.3637 100.275 21.4089 100.275 19.787C105.611 20.0018 109.188 24.7386 109.353 29.9587C111.141 18.6914 119.592 11.2694 129.8 11.3124ZM94.1995 21.7526C95.5668 20.3348 97.664 19.8729 99.1854 19.787V24.7493C97.9004 24.599 96.749 24.8675 95.7313 25.5764C94.7135 26.2853 94.1995 27.4668 94.1995 29.1102V37.2948H89.9743V20.1629H94.1995V21.7526ZM88.7099 36.5214C87.723 37.3592 86.4276 37.7781 84.8034 37.7781C83.0146 37.7781 81.5342 37.1551 80.3623 35.8984C79.1903 34.6417 78.6044 32.9017 78.6044 30.6783V20.1629H82.8398V30.1413C82.8398 31.2798 83.138 32.1498 83.7239 32.7621C84.3202 33.3636 85.1015 33.6643 86.0884 33.6643C87.1781 33.6643 88.0519 33.3099 88.7099 32.601V36.5214ZM70.668 37.7781C66.6896 37.7781 63.3999 36.3925 60.8093 33.6321C58.2084 30.8717 56.913 27.456 56.913 23.4067C56.913 19.3251 58.2084 15.9095 60.8093 13.1598C63.3999 10.4101 66.6896 9.03531 70.668 9.03531C73.0633 9.03531 75.2736 9.62606 77.2988 10.7968C77.6894 11.0224 78.0698 11.2587 78.4296 11.5165L75.8595 16.1566C75.5203 15.8666 75.1502 15.6088 74.7493 15.3725C73.5362 14.6743 72.1792 14.3306 70.668 14.3306C68.098 14.3306 66.0316 15.1684 64.4485 16.8547C62.8756 18.5411 62.0943 20.7215 62.0943 23.4067C62.0943 26.0705 62.8756 28.2401 64.4485 29.9265C66.0316 31.6021 68.098 32.4506 70.668 32.4506C72.1792 32.4506 73.5465 32.0961 74.7698 31.398C75.9418 30.732 76.8362 29.8298 77.4633 28.6913V30.6783C77.4633 32.311 77.7511 33.8899 78.4913 35.254C78.1212 35.5332 77.7306 35.7803 77.3193 36.0273C75.3044 37.1981 73.0839 37.7781 70.668 37.7781Z" fill="url(#paint0_linear_162_803)"/>
<path fill-rule="evenodd" clip-rule="evenodd" d="M19.5977 6.92685C14.9657 3.07589 8.40776 3.23646 3.94794 7.49473C-0.274039 11.3475 -1.46978 18.4427 2.13722 24.1143C3.30939 26.0077 5.29603 27.8219 7.74994 28.7301C16.3302 31.8143 19.5417 33.0311 22.3995 38.4889C22.9445 39.4874 24.8618 39.4919 25.0808 37.8454C26.3124 28.0698 26.9487 12.6163 19.5977 6.92685Z" fill="url(#paint1_linear_162_803)"/>
<path fill-rule="evenodd" clip-rule="evenodd" d="M50.7258 23.3982C47.8445 26.9292 43.0586 28.5424 38.2327 30.7331C34.0318 32.7674 31.5861 36.0647 28.5154 39.5185C27.3578 40.8741 25.0849 39.9482 25.5417 37.8961C28.1876 27.6004 26.5465 17.3398 27.1866 12.2107C29.1633 0.546197 40.6524 -2.67575 47.7467 2.17825C54.7337 6.8515 56.1686 16.8454 50.7258 23.3982Z" fill="url(#paint2_linear_162_803)"/>

</svg>
