<svg width="55" height="40" viewBox="0 0 55 40" fill="none" xmlns="http://www.w3.org/2000/svg">
<path fill-rule="evenodd" clip-rule="evenodd" d="M19.8407 7.50799C15.1512 3.74542 8.51201 3.90231 3.99689 8.06284C-0.277437 11.8271 -1.488 18.7595 2.16372 24.3009C3.35042 26.1509 5.3617 27.9234 7.84603 28.8108C16.5327 31.8241 19.784 33.013 22.6772 38.3455C23.229 39.3211 25.1701 39.3255 25.3918 37.7168C26.6387 28.1656 27.2829 13.0668 19.8407 7.50799Z" fill="white"/>
<path fill-rule="evenodd" clip-rule="evenodd" d="M51.3548 23.6012C48.4377 27.0511 43.5925 28.6273 38.7067 30.7678C34.4538 32.7553 31.9778 35.977 28.8689 39.3515C27.697 40.6759 25.3959 39.7713 25.8584 37.7663C28.5371 27.707 26.8757 17.6819 27.5236 12.6705C29.5249 1.2738 41.1564 -1.87418 48.3387 2.86839C55.4124 7.43437 56.865 17.1989 51.3548 23.6012Z" fill="white"/>
</svg>
