<svg width="49" height="36" viewBox="0 0 49 36" fill="none" xmlns="http://www.w3.org/2000/svg">
<path fill-rule="evenodd" clip-rule="evenodd" d="M17.4474 6.77172C13.3236 3.46302 7.48524 3.60098 3.51476 7.25964C-0.243971 10.5698 -1.30851 16.666 1.90272 21.5389C2.94627 23.1658 4.71494 24.7245 6.89959 25.5048C14.5384 28.1547 17.3976 29.2002 19.9418 33.8894C20.427 34.7473 22.1339 34.7512 22.3288 33.3365C23.4253 24.9375 23.9918 11.66 17.4474 6.77172Z" fill="white"/>
<path fill-rule="evenodd" clip-rule="evenodd" d="M45.1601 20.9237C42.5949 23.9575 38.3341 25.3435 34.0377 27.2258C30.2978 28.9736 28.1204 31.8066 25.3866 34.7741C24.356 35.9388 22.3325 35.1432 22.7392 33.3801C25.0948 24.5342 23.6338 15.7184 24.2036 11.3115C25.9634 1.28954 36.1919 -1.47872 42.5078 2.69178C48.7282 6.70698 50.0056 15.2936 45.1601 20.9237Z" fill="white"/>
</svg>
