<svg width="35" height="39" viewBox="0 0 35 39" fill="none" xmlns="http://www.w3.org/2000/svg">
<path d="M0.486839 16.3919L6.99277 19.3839C7.84843 17.041 8.73359 15.0463 9.64825 13.4C10.5629 11.7536 11.8169 9.91728 13.4102 7.89099L11.1088 7.36859C10.5187 7.24194 9.94331 7.2736 9.38271 7.46357C8.8221 7.65353 8.33527 7.97014 7.92219 8.41339L0.486839 16.3919ZM9.55974 20.7136L16.464 28.1697C18.5884 27.4415 20.6095 26.4366 22.5273 25.155C24.4452 23.8721 26.2155 22.36 27.8383 20.6186C30.4348 17.8325 32.3674 14.6506 33.6361 11.0729C34.9048 7.49523 35.2884 4.15501 34.7868 1.05225C31.8953 0.514017 28.7825 0.933207 25.4484 2.30982C22.1143 3.6877 19.149 5.76971 16.5525 8.55587C14.9002 10.3289 13.491 12.2285 12.325 14.2548C11.1601 16.2811 10.2384 18.434 9.55974 20.7136ZM21.775 15.0147C21.0963 14.2865 20.757 13.3917 20.757 12.3305C20.757 11.2705 21.0963 10.3764 21.775 9.64817C22.4536 8.91997 23.2874 8.55587 24.2764 8.55587C25.2643 8.55587 26.0975 8.91997 26.7761 9.64817C27.4547 10.3764 27.7941 11.2705 27.7941 12.3305C27.7941 13.3917 27.4547 14.2865 26.7761 15.0147C26.0975 15.7429 25.2643 16.107 24.2764 16.107C23.2874 16.107 22.4536 15.7429 21.775 15.0147ZM20.5357 37.858L27.9268 29.9269C28.3399 29.4837 28.635 28.9537 28.812 28.3369C28.989 27.7189 29.0185 27.0933 28.9005 26.4601L28.4579 23.9905C26.5696 25.7002 24.8512 27.0458 23.3027 28.0273C21.7531 29.0088 19.8866 29.9586 17.7032 30.8768L20.5357 37.858ZM3.31935 26.7925C4.35204 25.6844 5.60602 25.1221 7.08129 25.1056C8.55656 25.0904 9.81053 25.6369 10.8432 26.745C11.8759 27.8531 12.3923 29.1987 12.3923 30.7818C12.3923 32.3648 11.8759 33.7104 10.8432 34.8185C10.1056 35.61 8.87403 36.2908 7.14856 36.8606C5.42191 37.4305 3.03905 37.9371 0 38.3804C0.413075 35.1193 0.885161 32.5706 1.41626 30.7343C1.94735 28.8979 2.58172 27.584 3.31935 26.7925Z" fill="white"/>
</svg>
