<svg width="18" height="22" viewBox="0 0 18 22" fill="none" xmlns="http://www.w3.org/2000/svg">
<path d="M13.3753 0.0110058C13.3285 -0.0412442 11.6441 0.0316309 10.1784 1.62251C8.71265 3.21201 8.93814 5.03526 8.97114 5.08201C9.00414 5.12876 11.0611 5.20163 12.3743 3.35226C13.6874 1.50288 13.422 0.0646308 13.3753 0.0110058ZM17.932 16.1439C17.866 16.0119 14.7351 14.4471 15.0266 11.4386C15.3181 8.42876 17.3298 7.60376 17.3614 7.51438C17.393 7.42501 16.5405 6.42813 15.6371 5.92351C14.9739 5.56773 14.2398 5.36389 13.488 5.32676C13.3395 5.32263 12.8239 5.19613 11.7638 5.48626C11.0653 5.67738 9.49089 6.29613 9.05777 6.32088C8.62327 6.34563 7.33077 5.60313 5.94064 5.40651C5.05102 5.23463 4.10777 5.58663 3.43265 5.85751C2.7589 6.12701 1.4774 6.89426 0.580895 8.93338C-0.315605 10.9711 0.15327 14.1996 0.48877 15.2034C0.82427 16.2058 1.34815 17.8489 2.23915 19.0479C3.03115 20.4009 4.08165 21.34 4.52027 21.659C4.9589 21.978 6.19639 22.1898 7.05439 21.7511C7.74464 21.3276 8.99039 21.0843 9.48265 21.1021C9.97352 21.12 10.9415 21.3139 11.9329 21.8433C12.718 22.1141 13.4605 22.0014 14.2044 21.6989C14.9483 21.395 16.0249 20.2428 17.2816 17.9066C17.7588 16.8204 17.976 16.2333 17.932 16.1439Z" fill="white"/>
</svg>
