<svg width="34" height="34" viewBox="0 0 34 34" fill="none" xmlns="http://www.w3.org/2000/svg">
<path d="M12.2478 1.34448e-07C11.6919 1.72818e-05 11.1469 0.154498 10.6737 0.446204C10.2005 0.73791 9.8176 1.15537 9.56781 1.652L8.38781 4H5.00781C3.68173 4 2.40996 4.52678 1.47228 5.46447C0.534597 6.40215 0.0078125 7.67392 0.0078125 9V25C0.0078125 26.3261 0.534597 27.5979 1.47228 28.5355C2.40996 29.4732 3.68173 30 5.00781 30H15.1998C14.8727 29.3608 14.6095 28.6909 14.4138 28H5.00981C4.21416 28 3.4511 27.6839 2.88849 27.1213C2.32588 26.5587 2.00981 25.7957 2.00981 25V9C2.00981 8.20435 2.32588 7.44129 2.88849 6.87868C3.4511 6.31607 4.21416 6 5.00981 6H9.00581C9.19103 5.99962 9.3725 5.94781 9.53 5.85035C9.6875 5.75288 9.81484 5.61359 9.89781 5.448L11.3538 2.55C11.4372 2.38448 11.565 2.2454 11.7229 2.14828C11.8807 2.05116 12.0625 1.99982 12.2478 2H19.7758C19.9617 1.99963 20.144 2.05109 20.3023 2.1486C20.4606 2.24611 20.5885 2.3858 20.6718 2.552L22.1178 5.446C22.2009 5.61189 22.3286 5.75139 22.4865 5.84887C22.6444 5.94636 22.8263 5.99799 23.0118 5.998H27.0098C27.8055 5.998 28.5685 6.31407 29.1311 6.87668C29.6937 7.43929 30.0098 8.20235 30.0098 8.998V15.204C30.7225 15.5691 31.3932 16.011 32.0098 16.522V8.998C32.0098 7.67192 31.483 6.40015 30.5453 5.46247C29.6077 4.52478 28.3359 3.998 27.0098 3.998H23.6298L22.4598 1.658C22.2106 1.15964 21.8274 0.740551 21.3534 0.447706C20.8793 0.154861 20.333 -0.000166659 19.7758 1.34448e-07H12.2478ZM15.9998 8C17.7857 8.00007 19.5203 8.59741 20.9275 9.69697C22.3348 10.7965 23.3338 12.3351 23.7658 14.068C23.1008 14.1424 22.4441 14.2776 21.8038 14.472C21.5351 13.4509 21.0017 12.5188 20.2577 11.7698C19.5136 11.0207 18.585 10.4812 17.5658 10.2056C16.5465 9.93012 15.4726 9.92833 14.4525 10.2005C13.4323 10.4726 12.502 11.009 11.7554 11.7556C11.0088 12.5022 10.4724 13.4325 10.2003 14.4527C9.92814 15.4728 9.92993 16.5467 10.2055 17.566C10.481 18.5852 11.0205 19.5137 11.7696 20.2578C12.5187 21.0019 13.4508 21.5353 14.4718 21.804C14.2776 22.4436 14.1424 23.0997 14.0678 23.764C12.178 23.2864 10.5275 22.1357 9.42583 20.5277C8.32418 18.9197 7.84716 16.965 8.08428 15.0303C8.32139 13.0956 9.25634 11.3139 10.7137 10.0195C12.1711 8.72515 14.0507 8.00707 15.9998 8ZM33.9998 25C33.9998 27.3869 33.0516 29.6761 31.3638 31.364C29.6759 33.0518 27.3868 34 24.9998 34C22.6129 34 20.3237 33.0518 18.6359 31.364C16.948 29.6761 15.9998 27.3869 15.9998 25C15.9998 22.6131 16.948 20.3239 18.6359 18.636C20.3237 16.9482 22.6129 16 24.9998 16C27.3868 16 29.6759 16.9482 31.3638 18.636C33.0516 20.3239 33.9998 22.6131 33.9998 25ZM25.9998 21C25.9998 20.7348 25.8945 20.4804 25.7069 20.2929C25.5194 20.1054 25.265 20 24.9998 20C24.7346 20 24.4802 20.1054 24.2927 20.2929C24.1052 20.4804 23.9998 20.7348 23.9998 21V24H20.9998C20.7346 24 20.4802 24.1054 20.2927 24.2929C20.1052 24.4804 19.9998 24.7348 19.9998 25C19.9998 25.2652 20.1052 25.5196 20.2927 25.7071C20.4802 25.8946 20.7346 26 20.9998 26H23.9998V29C23.9998 29.2652 24.1052 29.5196 24.2927 29.7071C24.4802 29.8946 24.7346 30 24.9998 30C25.265 30 25.5194 29.8946 25.7069 29.7071C25.8945 29.5196 25.9998 29.2652 25.9998 29V26H28.9998C29.265 26 29.5194 25.8946 29.7069 25.7071C29.8945 25.5196 29.9998 25.2652 29.9998 25C29.9998 24.7348 29.8945 24.4804 29.7069 24.2929C29.5194 24.1054 29.265 24 28.9998 24H25.9998V21Z" fill="white"/>
</svg>
