<svg width="200" height="230" viewBox="0 0 200 230" fill="none" xmlns="http://www.w3.org/2000/svg">
<path d="M175.572 177.529H185.981L172.213 215.04C170.249 220.391 167.647 224.288 164.43 226.706C161.165 229.124 157.143 230.203 152.317 229.969V220.978C154.943 221.025 157.001 220.462 158.539 219.312C160.077 218.185 161.307 216.331 162.206 213.772L151.607 188.961C153.476 185.627 155.7 182.646 158.373 180.111L167.221 202.693L175.572 177.529ZM180.919 158.187C180.919 161.732 180.919 165.276 180.919 168.821C168.593 169.032 146.356 173.961 141.222 214.969C137.531 214.969 129.961 214.969 126.247 214.969C125.916 204.617 124.615 191.331 112.975 188.069C112.975 184.524 112.975 180.252 112.975 176.708C125.253 177.177 133.486 187.529 133.865 198.937C137.981 174.313 157.427 158.093 180.919 158.187ZM98.9938 181.003C102.14 177.905 106.966 176.895 110.468 176.708V187.552C107.51 187.224 104.861 187.81 102.519 189.36C100.177 190.909 98.9938 193.491 98.9938 197.082V214.969H89.2707V177.529H98.9938V181.003ZM86.3609 213.279C84.0898 215.11 81.109 216.025 77.3711 216.025C73.2548 216.025 69.8481 214.664 67.1512 211.918C64.4543 209.171 63.1058 205.369 63.1058 200.51V177.529H72.8526V199.336C72.8526 201.824 73.5387 203.725 74.8871 205.063C76.2592 206.378 78.0572 207.035 80.3283 207.035C82.836 207.035 84.8468 206.261 86.3609 204.711V213.279ZM44.8425 216.025C35.6871 216.025 28.1168 212.997 22.1552 206.965C16.1699 200.932 13.1891 193.468 13.1891 184.618C13.1891 175.698 16.1699 168.234 22.1552 162.225C28.1168 156.215 35.6871 153.211 44.8425 153.211C50.3546 153.211 55.4409 154.502 60.1014 157.06C61.0003 157.553 61.8757 158.07 62.7037 158.633L56.7894 168.774C56.0087 168.14 55.157 167.576 54.2344 167.06C51.4428 165.534 48.3201 164.783 44.8425 164.783C38.9281 164.783 34.173 166.614 30.5298 170.299C26.9103 173.985 25.1123 178.75 25.1123 184.618C25.1123 190.439 26.9103 195.181 30.5298 198.866C34.173 202.528 38.9281 204.383 44.8425 204.383C48.3201 204.383 51.4665 203.608 54.2817 202.082C56.9786 200.627 59.0368 198.655 60.4799 196.167V200.51C60.4799 204.077 61.1423 207.528 62.8456 210.509C61.9939 211.119 61.095 211.659 60.1487 212.199C55.5119 214.758 50.4019 216.025 44.8425 216.025Z" fill="white"/>
<path fill-rule="evenodd" clip-rule="evenodd" d="M72.5256 24.3172C55.3838 10.7981 31.1148 11.3618 14.6102 26.3108C-1.01413 39.8361 -5.43922 64.7445 7.90927 84.655C12.2471 91.3022 19.5992 97.6709 28.6804 100.859C60.4335 111.686 72.3186 115.958 82.8944 135.118C84.9114 138.624 92.0067 138.639 92.817 132.859C97.375 98.5413 99.7298 44.2903 72.5256 24.3172Z" fill="white"/>
<path fill-rule="evenodd" clip-rule="evenodd" d="M187.722 82.1411C177.059 94.5369 159.348 100.2 141.489 107.891C125.942 115.032 116.892 126.608 105.528 138.733C101.244 143.492 92.8322 140.241 94.5227 133.037C104.315 96.8935 98.2414 60.8728 100.61 42.8666C107.925 1.91747 150.443 -9.39342 176.697 7.64692C202.554 24.0527 207.864 59.1371 187.722 82.1411Z" fill="white"/>
</svg>
