<svg width="40" height="40" viewBox="0 0 40 40" fill="none" xmlns="http://www.w3.org/2000/svg">
<path fill-rule="evenodd" clip-rule="evenodd" d="M33.488 3.3334C33.488 3.03872 33.3709 2.7561 33.1625 2.54773C32.9541 2.33935 32.6715 2.22229 32.3768 2.22229H7.9324C7.63772 2.22229 7.3551 2.33935 7.14673 2.54773C6.93835 2.7561 6.82129 3.03872 6.82129 3.3334V4.44451H33.488V3.3334ZM35.6883 11.1111H4.31057C3.75656 11.1111 3.22524 11.3312 2.8335 11.7229C2.44176 12.1146 2.22168 12.646 2.22168 13.2V33.4666C2.22168 34.0206 2.44176 34.552 2.8335 34.9437C3.22524 35.3354 3.75656 35.5555 4.31057 35.5555H35.6883C36.2424 35.5555 36.7737 35.3354 37.1654 34.9437C37.5572 34.552 37.7772 34.0206 37.7772 33.4666V13.2C37.7772 12.646 37.5572 12.1146 37.1654 11.7229C36.7737 11.3312 36.2424 11.1111 35.6883 11.1111ZM35.555 33.3333H4.4439V13.3333H35.555V33.3333ZM9.51009 21.6111C10.1694 21.6111 10.8138 21.4156 11.362 21.0494C11.9102 20.6831 12.3374 20.1625 12.5897 19.5534C12.842 18.9443 12.908 18.2741 12.7794 17.6275C12.6508 16.9809 12.3333 16.3869 11.8671 15.9208C11.4009 15.4546 10.807 15.1371 10.1604 15.0085C9.51379 14.8799 8.84357 14.9459 8.23448 15.1982C7.62539 15.4505 7.1048 15.8777 6.73853 16.4259C6.37225 16.9741 6.17676 17.6185 6.17676 18.2778C6.17676 19.1618 6.52795 20.0097 7.15307 20.6348C7.77819 21.2599 8.62604 21.6111 9.51009 21.6111ZM9.51009 16.5C9.86346 16.4912 10.2114 16.5879 10.5096 16.7778C10.8077 16.9677 11.0425 17.2421 11.1839 17.5661C11.3253 17.8901 11.3669 18.2488 11.3034 18.5966C11.2399 18.9443 11.0742 19.2652 10.8274 19.5183C10.5807 19.7714 10.264 19.9452 9.91804 20.0175C9.57202 20.0897 9.21232 20.0572 8.88488 19.9241C8.55743 19.7909 8.27711 19.5632 8.07973 19.2699C7.88235 18.9767 7.77687 18.6313 7.77676 18.2778C7.77661 17.8139 7.9578 17.3683 8.28165 17.0362C8.60549 16.704 9.04634 16.5116 9.51009 16.5ZM15.4438 24.4445L8.77715 31.1111H6.57715L14.8549 22.7778C15.0027 22.6312 15.2024 22.549 15.4105 22.549C15.6186 22.549 15.8183 22.6312 15.966 22.7778L20.0438 26.8445L25.7771 21.1111C25.9249 20.9646 26.1246 20.8823 26.3327 20.8823C26.5408 20.8823 26.7405 20.9646 26.8883 21.1111L33.3327 27.5222V29.7445L26.3549 22.8222L18.066 31.1111H15.8438L18.9771 27.9778L15.4438 24.4445ZM35.3628 6.99206C35.5712 7.20044 35.6883 7.48305 35.6883 7.77774V8.88885H4.57715V7.77774C4.57715 7.48305 4.69421 7.20044 4.90259 6.99206C5.11096 6.78369 5.39357 6.66663 5.68826 6.66663H34.5772C34.8718 6.66663 35.1545 6.78369 35.3628 6.99206Z" fill="#D446F4"/>
</svg>
