<svg width="22" height="22" viewBox="0 0 22 22" fill="none" xmlns="http://www.w3.org/2000/svg">
<path d="M9.30109 12.6133C10.5768 13.9074 12.1203 14.9066 13.8233 15.5406L16.1272 13.7072C16.1955 13.6602 16.2765 13.635 16.3594 13.635C16.4424 13.635 16.5233 13.6602 16.5916 13.7072L20.8694 16.4633C21.0318 16.561 21.1693 16.695 21.271 16.8549C21.3727 17.0148 21.4358 17.1962 21.4553 17.3847C21.4749 17.5731 21.4504 17.7636 21.3837 17.941C21.317 18.1183 21.21 18.2778 21.0711 18.4067L19.0666 20.3867C18.7796 20.6703 18.4268 20.8785 18.0397 20.9925C17.6526 21.1066 17.2433 21.1231 16.8483 21.0406C12.908 20.2268 9.27611 18.3208 6.36775 15.5406C3.52394 12.7327 1.55603 9.15985 0.702754 5.25556C0.618461 4.86667 0.636054 4.4626 0.753828 4.08251C0.871602 3.70242 1.08556 3.3592 1.37498 3.08611L3.45275 1.08167C3.58133 0.949538 3.73813 0.848208 3.91142 0.785265C4.08471 0.722322 4.26999 0.699398 4.45339 0.718209C4.6368 0.737019 4.81357 0.797077 4.97047 0.893885C5.12737 0.990694 5.26034 1.12174 5.35942 1.27722L8.2072 5.5C8.25632 5.56631 8.28283 5.64665 8.28283 5.72917C8.28283 5.81169 8.25632 5.89202 8.2072 5.95833L6.33109 8.21333C6.98228 9.88224 7.99681 11.3853 9.30109 12.6133Z" fill="white"/>
</svg>
