<svg width="112" height="98" viewBox="0 0 112 98" fill="none" xmlns="http://www.w3.org/2000/svg">
<path fill-rule="evenodd" clip-rule="evenodd" d="M40.3622 13.5331C30.8224 6.0094 17.3162 6.32311 8.13102 14.6426C-0.564293 22.1697 -3.02695 36.0317 4.40178 47.1124C6.8159 50.8116 10.9075 54.356 15.9614 56.1304C33.6327 62.1559 40.2469 64.5333 46.1326 75.1962C47.2552 77.147 51.2038 77.1558 51.6548 73.939C54.1914 54.8404 55.5019 24.6485 40.3622 13.5331Z" fill="white"/>
<path fill-rule="evenodd" clip-rule="evenodd" d="M104.472 45.7133C98.5374 52.6118 88.6807 55.7636 78.7416 60.0437C70.0898 64.018 65.0528 70.4601 58.7285 77.2079C56.3444 79.8562 51.6633 78.0473 52.604 74.0381C58.0534 53.9233 54.6735 33.877 55.9917 23.8562C60.0629 1.06711 83.7251 -5.22764 98.3361 4.25568C112.726 13.3859 115.681 32.9111 104.472 45.7133Z" fill="white"/>
<g clip-path="url(#clip0_79_115)">
<path fill-rule="evenodd" clip-rule="evenodd" d="M65.6022 80C70.7723 80 74.973 84.1053 74.973 89.1579C74.973 93.8947 70.7723 98 65.6022 98C60.7552 98 56.5544 93.8947 56.5544 89.1579C56.5544 84.1053 60.7552 80 65.6022 80V80Z" fill="white"/>
<path fill-rule="evenodd" clip-rule="evenodd" d="M40.3977 80C45.2447 80 49.4455 84.1053 49.4455 89.1579C49.4455 93.8947 45.2447 98 40.3977 98C35.2276 98 31.0269 93.8947 31.0269 89.1579C31.0269 84.1053 35.2276 80 40.3977 80V80Z" fill="white"/>
<path fill-rule="evenodd" clip-rule="evenodd" d="M50.7379 91.3684C50.4148 92.3158 49.1222 92.9474 47.5066 91.6842C45.2446 89.7895 42.3364 96.4211 38.4588 95.1579C38.1357 94.8421 38.1357 94.2105 38.782 94.2105C42.0133 94.8421 43.3058 86.3158 49.4454 88.5263C50.4148 88.8421 51.3842 90.1053 50.7379 91.3684Z" fill="black"/>
<path fill-rule="evenodd" clip-rule="evenodd" d="M61.7244 92.3158C61.7244 92.3158 59.1394 91.3684 57.5237 90.1053C56.2312 88.5263 55.908 88.5263 55.5849 88.5263C55.2618 88.5263 54.2924 88.8421 53.9692 89.4737C53.9692 90.1053 54.2924 91.0526 54.9386 91.3684C55.5849 91.6842 56.2312 91.6842 56.8774 92C56.2312 92.6316 55.5849 94.2105 56.8774 95.1579C58.17 96.1053 58.4931 96.1053 58.4931 95.7895C58.8162 95.4737 60.1088 93.2631 61.7244 92.3158Z" fill="#BA0000"/>
<path fill-rule="evenodd" clip-rule="evenodd" d="M56.5544 89.4737C56.5544 89.4737 56.2313 89.1579 55.585 89.1579C54.9387 88.8421 54.2925 89.1579 54.2925 89.7895C54.6156 90.1053 54.6156 91.0526 55.585 91.0526C56.2313 91.3684 56.5544 91.3684 56.8775 91.6842C57.2007 91.6842 59.1395 92 59.4626 91.6842C58.8163 91.3684 58.1701 91.0526 56.5544 89.4737Z" fill="#FF0000"/>
<path fill-rule="evenodd" clip-rule="evenodd" d="M56.5543 92.9474C56.5543 92.9474 56.8774 93.2632 57.5237 93.2632C57.8468 93.2632 57.8468 92.9474 57.5237 92.6316C58.8162 92.9474 59.4625 92.9474 60.4319 92.6316C60.755 92.6316 61.0782 92.3158 61.0782 92.3158C61.0782 92.3158 60.1088 93.2632 59.4625 93.8947C58.8162 94.5263 58.17 95.1579 57.2006 95.1579C56.5543 94.8421 55.908 93.8947 56.5543 92.9474Z" fill="#FF0000"/>
<path fill-rule="evenodd" clip-rule="evenodd" d="M54.2925 89.4737C54.2925 89.4737 54.6156 88.8421 55.2619 88.5263C55.9081 88.5263 56.5544 89.1579 56.5544 89.4737C55.9081 88.8421 55.2619 88.5263 54.2925 89.4737Z" fill="white"/>
<path fill-rule="evenodd" clip-rule="evenodd" d="M50.4148 89.7895C50.7379 90.1053 50.4148 91.3684 49.7685 91.6842C49.4454 92 49.1222 92 48.7991 91.6842C46.8603 90.7368 46.214 91.3684 45.5678 91.3684C45.5678 91.6842 45.2446 91.3684 45.5678 91.0526C46.5372 90.421 47.8297 90.421 49.1222 91.0526C49.7685 91.3684 50.0916 90.421 49.7685 90.1053C49.1222 89.4737 47.8297 89.1579 47.5066 89.1579C46.214 88.8421 45.5678 89.4737 44.9215 90.1053C44.2752 90.7368 43.3058 91.6842 42.3364 92.6316C41.367 93.5789 40.3976 94.5263 39.4282 94.5263C40.3976 94.2105 41.367 93.2631 42.0133 92.3158C42.9827 91.3684 43.9521 90.1053 44.5984 89.4737C45.5678 88.8421 46.214 88.5263 47.1834 88.5263C48.476 88.5263 49.4454 88.8421 50.4148 89.7895Z" fill="#1A1A1A"/>
<path fill-rule="evenodd" clip-rule="evenodd" d="M38.782 94.8421C38.782 94.8421 39.7514 95.1579 41.6902 94.2105C42.3365 93.8947 42.9827 93.2632 43.3059 92.6316C44.2752 92 44.9215 91.3684 45.5678 90.7368C46.8603 89.7895 47.8297 90.1053 48.7991 90.7368C49.1223 90.7368 49.7685 90.4211 49.1223 90.1053C48.1529 89.4737 46.8603 88.8421 45.2447 90.4211C44.5984 90.7368 43.9521 91.6842 42.9827 92.3158C42.3365 93.2632 41.3671 93.8947 40.7208 94.2105C40.0745 94.5263 39.1051 94.8421 38.782 94.8421Z" fill="#1A1A1A"/>
</g>
<defs>
<clipPath id="clip0_79_115">
<rect width="44" height="18" fill="white" transform="translate(31 80)"/>
</clipPath>
</defs>
</svg>
