<svg width="46" height="46" viewBox="0 0 46 46" fill="none" xmlns="http://www.w3.org/2000/svg">
<defs>
<linearGradient id="paint0_linear_196_557" x1="13.2827" y1="7.90533" x2="37.4332" y2="57.1092" gradientUnits="userSpaceOnUse">
<stop stop-color="#FFA800"/>
<stop offset="1" stop-color="#CCFF00"/>
</linearGradient>
</defs>
<path d="M22.9119 0C29.4329 0 35.0728 2.64368 39.3027 6.69732C43.3563 10.9272 46 16.7433 46 23.0881C46 29.4329 43.3563 35.0728 39.3027 39.3027C35.0728 43.5326 29.4329 46 22.9119 46C16.567 46 10.9272 43.5326 6.69732 39.3027C2.46743 35.0728 0 29.4329 0 23.0881C0 16.7433 2.46743 10.9272 6.69732 6.69732C10.9272 2.64368 16.567 0 22.9119 0V0ZM38.5977 7.4023C34.5441 3.34866 29.0805 0.881226 22.9119 0.881226C16.9195 0.881226 11.2797 3.34866 7.4023 7.4023C3.34866 11.4559 0.881226 16.9195 0.881226 23.0881C0.881226 29.0805 3.34866 34.7203 7.4023 38.5977C11.2797 42.6513 16.9195 45.1188 22.9119 45.1188C29.0805 45.1188 34.5441 42.6513 38.5977 38.5977C42.6513 34.7203 45.1188 29.0805 45.1188 23.0881C45.1188 16.9195 42.6513 11.4559 38.5977 7.4023ZM13.9234 25.3793L24.1456 35.4253C25.0268 36.4828 26.7893 36.4828 27.8467 35.4253C28.9042 34.3678 28.9042 32.6054 27.8467 31.5479L19.7395 23.4406L27.8467 15.3333C28.9042 14.2759 28.9042 12.5134 27.8467 11.4559C26.7893 10.3985 25.0268 10.3985 24.1456 11.4559L13.9234 21.5019V21.6782H13.7471V21.8544L13.5709 22.0306V22.2069H13.3946V22.3831V22.5594L13.2184 22.7356V22.9119V23.0881V23.2644V23.4406V23.6169V23.7931V23.9693V24.1456L13.3946 24.3218V24.4981V24.6743H13.5709V24.8506L13.7471 25.0268V25.2031H13.9234V25.3793V25.3793Z" fill="url(#paint0_linear_196_557)"/>

</svg>
