<svg width="34" height="40" viewBox="0 0 34 40" fill="none" xmlns="http://www.w3.org/2000/svg">
<g filter="url(#filter0_d_196_803)">
<path d="M17.0124 20.6279C16.7496 20.6279 16.5032 20.5811 16.2733 20.4875C16.0433 20.3954 15.8298 20.2379 15.6327 20.015L6.56671 9.76305C6.20538 9.35446 6.01683 8.84334 6.00106 8.22971C5.98398 7.61757 6.17253 7.08863 6.56671 6.64289C6.92803 6.2343 7.38791 6.03 7.94632 6.03C8.50474 6.03 8.96461 6.2343 9.32593 6.64289L17.0124 15.279L24.6988 6.64289C25.0601 6.2343 25.5114 6.02034 26.0528 6.00103C26.5954 5.9832 27.0638 6.19715 27.458 6.64289C27.8193 7.05148 28 7.57151 28 8.20297C28 8.83443 27.8193 9.35446 27.458 9.76305L18.392 20.015C18.1949 20.2379 17.9814 20.3954 17.7514 20.4875C17.5215 20.5811 17.2751 20.6279 17.0124 20.6279ZM17.0124 34C16.7496 34 16.5032 33.9532 16.2733 33.8596C16.0433 33.7675 15.8298 33.61 15.6327 33.3871L6.56671 23.1352C6.20538 22.7266 6.01683 22.2155 6.00106 21.6018C5.98398 20.9897 6.17253 20.4607 6.56671 20.015C6.92803 19.6064 7.38791 19.4021 7.94632 19.4021C8.50474 19.4021 8.96461 19.6064 9.32593 20.015L17.0124 28.6512L24.6988 20.015C25.0601 19.6064 25.5114 19.3925 26.0528 19.3731C26.5954 19.3553 27.0638 19.5693 27.458 20.015C27.8193 20.4236 28 20.9436 28 21.5751C28 22.2065 27.8193 22.7266 27.458 23.1352L18.392 33.3871C18.1949 33.61 17.9814 33.7675 17.7514 33.8596C17.5215 33.9532 17.2751 34 17.0124 34Z" fill="white"/>
</g>
<defs>
<filter id="filter0_d_196_803" x="0" y="0" width="34" height="40" filterUnits="userSpaceOnUse" color-interpolation-filters="sRGB">
<feFlood flood-opacity="0" result="BackgroundImageFix"/>
<feColorMatrix in="SourceAlpha" type="matrix" values="0 0 0 0 0 0 0 0 0 0 0 0 0 0 0 0 0 0 127 0" result="hardAlpha"/>
<feOffset/>
<feGaussianBlur stdDeviation="3"/>
<feComposite in2="hardAlpha" operator="out"/>
<feColorMatrix type="matrix" values="0 0 0 0 0 0 0 0 0 0 0 0 0 0 0 0 0 0 0.25 0"/>
<feBlend mode="normal" in2="BackgroundImageFix" result="effect1_dropShadow_196_803"/>
<feBlend mode="normal" in="SourceGraphic" in2="effect1_dropShadow_196_803" result="shape"/>
</filter>
</defs>
</svg>
