<svg width="64" height="64" viewBox="0 0 64 64" fill="none" xmlns="http://www.w3.org/2000/svg">
<defs>
<linearGradient id="paint0_linear_196_584" x1="24.665" y1="8.74747" x2="49.163" y2="63.9634" gradientUnits="userSpaceOnUse">
<stop offset="0.270751" stop-color="#1FE9BB"/>
<stop offset="1" stop-color="#0D92E3"/>
</linearGradient>
<linearGradient id="paint1_linear_196_584" x1="24.665" y1="8.74747" x2="49.163" y2="63.9634" gradientUnits="userSpaceOnUse">
<stop offset="0.270751" stop-color="#1FE9BB"/>
<stop offset="1" stop-color="#0D92E3"/>
</linearGradient>
<linearGradient id="paint2_linear_196_584" x1="24.665" y1="8.74747" x2="49.163" y2="63.9634" gradientUnits="userSpaceOnUse">
<stop offset="0.270751" stop-color="#1FE9BB"/>
<stop offset="1" stop-color="#0D92E3"/>
</linearGradient>
</defs>
<path d="M53.9504 10.022C48.3085 4.39561 40.551 0.879121 31.9119 0.879121C23.449 0.879121 15.5152 4.39561 9.87329 10.022C4.23141 15.6484 0.881546 23.3846 0.881546 32C0.881546 40.4396 4.23141 48.3517 9.87329 53.978C15.5152 59.6044 23.449 62.9451 31.9119 62.9451C40.551 62.9451 48.3085 59.6044 53.9504 53.978C59.5923 48.3517 63.1185 40.4396 63.1185 32C63.1185 23.3846 59.5923 15.6484 53.9504 10.022ZM31.9119 0C40.9036 0 48.8375 3.51648 54.6557 9.31868C60.4738 15.1209 64 23.033 64 32C64 40.7912 60.4738 48.7033 54.6557 54.5055C48.8375 60.3077 40.9036 64 31.9119 64C23.0964 64 15.1625 60.3077 9.34435 54.5055C3.52617 48.7033 0 40.7912 0 32C0 23.033 3.52617 15.1209 9.34435 9.31868C15.1625 3.51648 23.0964 0 31.9119 0Z" fill="url(#paint0_linear_196_584)"/>
<path fill-rule="evenodd" clip-rule="evenodd" d="M25.565 21.0989C21.3336 17.7583 15.6917 17.9341 11.813 21.4506C8.11048 24.6154 7.05262 30.5935 10.2262 35.3407C11.284 36.9231 12.8708 38.3297 15.1628 39.2088C22.5678 41.6704 25.3887 42.7253 27.857 47.2967C28.386 48 30.149 48 30.3254 46.7693C31.3832 38.5055 31.9121 25.6704 25.565 21.0989Z" fill="url(#paint1_linear_196_584)"/>
<path fill-rule="evenodd" clip-rule="evenodd" d="M52.7165 34.6374C50.2482 37.6264 46.0168 39.033 41.7854 40.7913C38.0829 42.5495 35.9672 45.1869 33.3226 48.1759C32.2647 49.2308 30.3253 48.5275 30.678 46.7693C32.97 38.1539 31.5595 29.7143 32.0884 25.3187C33.8515 15.6484 43.9011 13.011 50.0719 17.055C56.2427 20.9231 57.4769 29.1869 52.7165 34.6374Z" fill="url(#paint2_linear_196_584)"/>

</svg>
