<svg width="11" height="14" viewBox="0 0 11 14" fill="none" xmlns="http://www.w3.org/2000/svg">
<path d="M5.5 6.85245C5.87813 6.85245 6.20194 6.71525 6.47144 6.44085C6.74048 6.16691 6.875 5.83745 6.875 5.45245C6.875 5.06745 6.74048 4.73775 6.47144 4.46335C6.20194 4.18942 5.87813 4.05245 5.5 4.05245C5.12187 4.05245 4.79829 4.18942 4.52925 4.46335C4.25975 4.73775 4.125 5.06745 4.125 5.45245C4.125 5.83745 4.25975 6.16691 4.52925 6.44085C4.79829 6.71525 5.12187 6.85245 5.5 6.85245ZM5.5 13.8524C3.65521 12.2541 2.27746 10.7694 1.36675 9.39835C0.455583 8.02775 0 6.75912 0 5.59245C0 -1.84493 11 -1.88335 11 5.59245C11 6.75912 10.5446 8.02775 9.63394 9.39835C8.72277 10.7694 7.34479 12.2541 5.5 13.8524Z" fill="white"/>
</svg>
