<svg width="26" height="28" viewBox="0 0 26 28" fill="none" xmlns="http://www.w3.org/2000/svg">
<g filter="url(#filter0_d_196_754)">
<path d="M7.31251 16.9742C8.13881 16.9716 8.93384 16.6402 9.53919 16.046L15.4531 19.616C15.2549 20.434 15.3423 21.3 15.6991 22.0555C16.056 22.811 16.6585 23.4055 17.3963 23.7301C18.1341 24.0546 18.9579 24.0876 19.7169 23.823C20.4759 23.5583 21.1192 23.0138 21.5292 22.289C21.9391 21.5641 22.0883 20.7076 21.9493 19.8761C21.8104 19.0446 21.3926 18.2938 20.7725 17.7611C20.1523 17.2285 19.3714 16.9496 18.5725 16.9755C17.7736 17.0014 17.0103 17.3305 16.4223 17.9023L10.5085 14.3324C10.5708 14.0829 10.6048 13.8244 10.6105 13.5659L16.4204 10.0578C16.9799 10.5955 17.6973 10.9136 18.4525 10.9587C19.2076 11.0039 19.9544 10.7733 20.5677 10.3056C21.1809 9.83798 21.6233 9.16175 21.8206 8.39039C22.0179 7.61903 21.958 6.79946 21.6511 6.06918C21.3442 5.3389 20.8089 4.74233 20.1351 4.37957C19.4612 4.01681 18.6897 3.90992 17.9501 4.07683C17.2104 4.24375 16.5476 4.67431 16.0728 5.29629C15.5981 5.91827 15.3402 6.69382 15.3425 7.49284C15.3463 7.78027 15.3832 8.06671 15.4531 8.34416L10.0833 11.5848C9.77194 11.0758 9.34057 10.6612 8.83162 10.3817C8.32266 10.1022 7.75362 9.96737 7.18042 9.99047C6.60721 10.0136 6.04955 10.1938 5.56224 10.5135C5.07492 10.8332 4.67471 11.2813 4.40092 11.8138C4.12714 12.3463 3.9892 12.945 4.00066 13.5508C4.01212 14.1567 4.17258 14.749 4.46629 15.2696C4.75999 15.7901 5.17683 16.221 5.67584 16.5198C6.17486 16.8187 6.73889 16.9753 7.31251 16.9742Z" fill="white"/>
</g>
<defs>
<filter id="filter0_d_196_754" x="0" y="0" width="26" height="28" filterUnits="userSpaceOnUse" color-interpolation-filters="sRGB">
<feFlood flood-opacity="0" result="BackgroundImageFix"/>
<feColorMatrix in="SourceAlpha" type="matrix" values="0 0 0 0 0 0 0 0 0 0 0 0 0 0 0 0 0 0 127 0" result="hardAlpha"/>
<feOffset/>
<feGaussianBlur stdDeviation="2"/>
<feComposite in2="hardAlpha" operator="out"/>
<feColorMatrix type="matrix" values="0 0 0 0 0 0 0 0 0 0 0 0 0 0 0 0 0 0 0.5 0"/>
<feBlend mode="normal" in2="BackgroundImageFix" result="effect1_dropShadow_196_754"/>
<feBlend mode="normal" in="SourceGraphic" in2="effect1_dropShadow_196_754" result="shape"/>
</filter>
</defs>
</svg>
