<svg width="54" height="54" viewBox="0 0 54 54" fill="none" xmlns="http://www.w3.org/2000/svg">
<defs>
<linearGradient id="paint0_linear_196_556" x1="3.45938" y1="-28.62" x2="71.6419" y2="-17.9148" gradientUnits="userSpaceOnUse">
<stop offset="0.09375" stop-color="#4AB0EB"/>
<stop offset="1" stop-color="#00FFE1"/>
</linearGradient>
</defs>
<path d="M26.9143 0C34.4571 0 41.1429 3.08571 46.1143 7.88571C50.9143 12.8571 54 19.5429 54 27.0857C54 34.4571 50.9143 41.1429 46.1143 46.1143C41.1429 50.9143 34.4571 54 26.9143 54C19.5428 54 12.8571 50.9143 7.88571 46.1143C3.08571 41.1429 0 34.4571 0 27.0857C0 19.5429 3.08571 12.8571 7.88571 7.88571C12.8571 3.08571 19.5428 0 26.9143 0ZM45.4286 8.57143C40.6286 3.77143 34.1143 0.857143 26.9143 0.857143C19.7143 0.857143 13.2 3.77143 8.57143 8.57143C3.77143 13.3714 0.857146 19.8857 0.857146 27.0857C0.857146 34.2857 3.77143 40.8 8.57143 45.4286C13.2 50.2286 19.7143 53.1429 26.9143 53.1429C34.1143 53.1429 40.6286 50.2286 45.4286 45.4286C50.2286 40.8 53.1429 34.2857 53.1429 27.0857C53.1429 19.8857 50.2286 13.3714 45.4286 8.57143ZM20.5714 12.1714C20.5714 12.1714 19.3714 10.2857 16.9714 10.4571C14.4 10.6286 11.8286 13.7143 14.5714 17.3143C16.6286 19.8857 19.2 21.4286 20.0571 21.9429C20.4 22.1143 20.5714 22.1143 20.9143 21.9429C21.9429 21.4286 24.3429 19.8857 26.4 17.3143C29.1429 13.7143 26.5714 10.6286 24 10.4571C21.6 10.2857 20.5714 12.1714 20.5714 12.1714ZM24.6857 24.1714C24.6857 24.1714 26.0571 23.6571 26.5714 22.6286C27.0857 21.7714 28.8 19.0286 28.9714 17.4857C29.3143 16.1143 29.6571 13.8857 29.6571 13.2C29.8286 12.5143 30.1714 11.6571 31.0286 11.3143C31.8857 10.9714 33.2571 11.4857 33.9429 13.2C34.6286 15.0857 34.8 16.8 34.4571 19.0286C33.9429 21.4286 33.6 22.4571 33.6 22.4571H37.2H40.9714H42.3429C43.5429 22.4571 44.5714 23.4857 44.5714 24.6857C44.5714 26.2286 43.5429 26.9143 42.3429 26.9143L42.1714 27.0857C42.1714 27.0857 42.1714 27.0857 42.3429 27.0857C43.0286 27.6 43.5429 28.2857 43.5429 29.1429C43.5429 30.6857 42.5143 31.3714 41.3143 31.5429H41.1429C41.1429 31.5429 41.1428 31.7143 41.3143 31.7143C42 32.0571 42.5143 32.7429 42.5143 33.7714C42.5143 35.1429 41.4857 35.8286 40.2857 36H40.1143C40.1143 36.1714 40.1143 36.1714 40.2857 36.1714C40.9714 36.5143 41.4857 37.3714 41.4857 38.2286C41.4857 39.4286 40.4571 40.4571 39.2571 40.4571H37.0286H34.1143H24.6857V24.1714ZM21.9429 23.6571H11.1429V41.4857H21.9429L23.3143 40.2857V24.8571L21.9429 23.6571Z" fill="url(#paint0_linear_196_556)"/>

</svg>
