<svg width="46" height="46" viewBox="0 0 46 46" fill="none" xmlns="http://www.w3.org/2000/svg">
<defs>
<linearGradient id="paint0_linear_196_558" x1="2.94688" y1="-24.38" x2="61.0283" y2="-15.2607" gradientUnits="userSpaceOnUse">
<stop offset="0.09375" stop-color="#D51CFF"/>
<stop offset="1" stop-color="#6198EF"/>
</linearGradient>
</defs>
<path d="M23.0881 0C29.433 0 35.0728 2.64368 39.3027 6.69732C43.5326 10.9272 46 16.7433 46 23.0881C46 29.4329 43.5326 35.0728 39.3027 39.3027C35.0728 43.5326 29.433 46 23.0881 46C16.7433 46 10.9272 43.5326 6.69734 39.3027C2.6437 35.0728 0 29.4329 0 23.0881C0 16.7433 2.6437 10.9272 6.69734 6.69732C10.9272 2.64368 16.7433 0 23.0881 0ZM38.5977 7.4023C34.7203 3.34866 29.0805 0.881226 23.0881 0.881226C16.9196 0.881226 11.4559 3.34866 7.4023 7.4023C3.34866 11.4559 0.881246 16.9195 0.881246 23.0881C0.881246 29.0805 3.34866 34.7203 7.4023 38.5977C11.4559 42.6513 16.9196 45.1188 23.0881 45.1188C29.0805 45.1188 34.7203 42.6513 38.5977 38.5977C42.6513 34.7203 45.1188 29.0805 45.1188 23.0881C45.1188 16.9195 42.6513 11.4559 38.5977 7.4023ZM27.6705 15.6858C29.0804 15.5096 30.3142 16.567 30.4904 17.8008C30.6667 19.387 29.6092 20.6207 28.3755 20.7969C27.318 20.9732 26.4368 20.4444 25.9081 19.5632C25.7318 19.2107 25.5556 19.0345 25.5556 18.682C25.2031 17.0958 26.2605 15.8621 27.6705 15.6858ZM22.0306 28.9042C23.6169 28.728 26.2606 27.1418 27.4943 26.2605C28.728 25.5556 29.7854 24.4981 30.8429 23.6169C33.1341 21.3257 35.0728 17.8008 35.6015 14.4521C35.7778 13.5709 35.954 11.4559 35.7778 10.751C27.6705 9.16475 20.0919 16.2146 17.4483 23.2644C17.272 23.7931 17.4483 23.7931 17.977 24.4981C18.682 25.2031 19.5632 26.0843 20.2682 26.7893C20.6207 27.1418 22.0306 28.728 22.0306 28.9042ZM10.2222 35.6015C12.3372 35.4253 15.8621 34.7203 17.4483 33.8391C19.0345 32.7816 19.5632 30.8429 19.0345 29.0805C18.8582 28.728 18.682 28.3755 18.3295 28.023C17.977 27.6705 17.272 27.1418 16.7433 26.7893C15.6858 26.4368 14.0996 26.613 13.2184 27.318C12.6897 27.8467 12.5134 27.8467 12.1609 28.5517C11.2797 29.9617 10.3985 33.4866 10.2222 35.6015ZM10.9272 20.4444C11.1035 20.6207 15.3333 22.5594 15.5096 22.7356C15.6858 22.3831 15.8621 21.8544 16.0383 21.6782C17.4483 18.682 17.8008 18.1533 19.5632 15.8621C19.7395 15.5096 20.2682 15.1571 20.2682 14.9808C19.2107 14.8046 18.1533 14.0996 17.0958 14.8046C16.5671 14.9808 16.3908 15.3333 15.8621 15.6858C15.5096 16.0383 15.3333 16.2146 14.9808 16.567C14.8046 16.7433 14.6283 16.9195 14.4521 17.0958L10.9272 20.4444ZM22.9119 30.8429L24.8506 35.6015L26.7893 33.6628C27.1418 33.3103 27.4942 32.9579 27.8467 32.6054C28.1992 32.4291 28.5517 32.0766 28.9042 31.7241C29.2567 31.3716 29.6092 31.0192 29.9617 30.6667C31.3717 29.2567 31.1954 28.3755 30.8429 26.2605C30.6667 26.4368 30.4904 26.4368 30.3142 26.613C28.728 28.023 27.1418 28.9042 25.2031 29.9617C24.4981 30.1379 23.6169 30.4904 22.9119 30.8429Z" fill="url(#paint0_linear_196_558)"/>

</svg>
