<svg width="66" height="66" viewBox="0 0 66 66" fill="none" xmlns="http://www.w3.org/2000/svg">
<defs>
<linearGradient id="paint0_linear_196_554" x1="21.922" y1="14.0256" x2="53.4454" y2="64.9133" gradientUnits="userSpaceOnUse">
<stop stop-color="#FF0000"/>
<stop offset="1" stop-color="#FFB800"/>
</linearGradient>
<linearGradient id="paint1_linear_196_554" x1="21.922" y1="14.0256" x2="53.4454" y2="64.9133" gradientUnits="userSpaceOnUse">
<stop stop-color="#FF0000"/>
<stop offset="1" stop-color="#FFB800"/>
</linearGradient>
</defs>
<path d="M33 1C41.7912 1 49.7033 4.51648 55.5055 10.3187C61.3077 16.1209 65 24.033 65 33C65 41.7912 61.3077 49.7033 55.5055 55.5055C49.7033 61.3077 41.7912 65 33 65C24.2088 65 16.1209 61.3077 10.3187 55.5055C4.51648 49.7033 1 41.7912 1 33C1 24.033 4.51648 16.1209 10.3187 10.3187C16.1209 4.51648 24.2088 1 33 1ZM54.978 11.022C49.3516 5.3956 41.6154 1.87912 33 1.87912C24.3846 1.87912 16.6483 5.3956 11.022 11.022C5.3956 16.6484 1.87912 24.3846 1.87912 33C1.87912 41.4396 5.3956 49.3517 11.022 54.978C16.6483 60.6044 24.3846 63.9451 33 63.9451C41.6154 63.9451 49.3516 60.6044 54.978 54.978C60.6044 49.3517 64.1209 41.4396 64.1209 33C64.1209 24.3846 60.6044 16.6484 54.978 11.022ZM18.4066 42.6703C17 44.0769 17 46.1868 18.4066 47.5934C19.6374 48.8242 21.9231 48.8242 23.1538 47.5934L33 37.7473L42.6703 47.5934C44.0769 48.8242 46.1868 48.8242 47.5934 47.5934C48.8242 46.1868 48.8242 44.0769 47.5934 42.6703L37.7472 33L47.5934 23.1538C48.8242 21.9231 48.8242 19.6374 47.5934 18.4066C46.1868 17 44.0769 17 42.6703 18.4066L33 28.0769L23.1538 18.4066C21.9231 17 19.6374 17 18.4066 18.4066C17 19.6374 17 21.9231 18.4066 23.1538L28.2527 33L18.4066 42.6703Z" fill="url(#paint0_linear_196_554)" stroke="url(#paint1_linear_196_554)" stroke-width="0.780862" stroke-miterlimit="22.9256"/>

</svg>
