<svg width="22" height="28" viewBox="0 0 22 28" fill="none" xmlns="http://www.w3.org/2000/svg">
<path d="M11.0124 14.6279C10.7496 14.6279 10.5032 14.5811 10.2733 14.4875C10.0433 14.3954 9.82983 14.2379 9.63274 14.015L0.566705 3.76305C0.205378 3.35446 0.0168312 2.84334 0.00106415 2.22971C-0.0160168 1.61757 0.17253 1.08863 0.566705 0.64289C0.928033 0.234298 1.38791 0.0300016 1.94632 0.0300016C2.50474 0.0300016 2.96461 0.234298 3.32593 0.64289L11.0124 9.27904L18.6988 0.64289C19.0601 0.234298 19.5114 0.0203439 20.0528 0.00102862C20.5954 -0.0168009 21.0638 0.197153 21.458 0.64289C21.8193 1.05148 22 1.57151 22 2.20297C22 2.83443 21.8193 3.35446 21.458 3.76305L12.392 14.015C12.1949 14.2379 11.9814 14.3954 11.7514 14.4875C11.5215 14.5811 11.2751 14.6279 11.0124 14.6279ZM11.0124 28C10.7496 28 10.5032 27.9532 10.2733 27.8596C10.0433 27.7675 9.82983 27.61 9.63274 27.3871L0.566705 17.1352C0.205378 16.7266 0.0168312 16.2155 0.00106415 15.6018C-0.0160168 14.9897 0.17253 14.4607 0.566705 14.015C0.928033 13.6064 1.38791 13.4021 1.94632 13.4021C2.50474 13.4021 2.96461 13.6064 3.32593 14.015L11.0124 22.6512L18.6988 14.015C19.0601 13.6064 19.5114 13.3925 20.0528 13.3731C20.5954 13.3553 21.0638 13.5693 21.458 14.015C21.8193 14.4236 22 14.9436 22 15.5751C22 16.2065 21.8193 16.7266 21.458 17.1352L12.392 27.3871C12.1949 27.61 11.9814 27.7675 11.7514 27.8596C11.5215 27.9532 11.2751 28 11.0124 28Z" fill="white"/>
</svg>
