<svg width="14" height="19" viewBox="0 0 14 19" fill="none" xmlns="http://www.w3.org/2000/svg">
<path d="M7.86406 18.5731C9.73438 16.1845 14 10.3953 14 7.14349C14 3.19969 10.8646 0 7 0C3.13542 0 0 3.19969 0 7.14349C0 10.3953 4.26562 16.1845 6.13594 18.5731C6.58437 19.1423 7.41562 19.1423 7.86406 18.5731ZM7 9.52465C5.71302 9.52465 4.66667 8.45685 4.66667 7.14349C4.66667 5.83013 5.71302 4.76232 7 4.76232C8.28698 4.76232 9.33333 5.83013 9.33333 7.14349C9.33333 8.45685 8.28698 9.52465 7 9.52465Z" fill="#7B8491"/>
</svg>
